<?xml version="1.0" encoding="UTF-8" standalone="no"?>
<!DOCTYPE svg PUBLIC "-//W3C//DTD SVG 1.1//EN"
 "http://www.w3.org/Graphics/SVG/1.1/DTD/svg11.dtd">
<!-- Generated by graphviz version 2.38.0 (20140413.2041)
 -->
<!-- Title: Migrering Pages: 1 -->
<svg width="1403pt" height="778pt"
 viewBox="0.00 0.00 1403.00 777.70" xmlns="http://www.w3.org/2000/svg" xmlns:xlink="http://www.w3.org/1999/xlink">
<g id="graph0" class="graph" transform="scale(1 1) rotate(0) translate(4 773.7)">
<title>Migrering</title>
<polygon fill="white" stroke="none" points="-4,4 -4,-773.7 1399,-773.7 1399,4 -4,4"/>
<g id="clust1" class="cluster"><title>cluster_0</title>
<polygon fill="lightgrey" stroke="lightgrey" points="181,-672.7 181,-761.7 653,-761.7 653,-672.7 181,-672.7"/>
<text text-anchor="middle" x="275.642" y="-743.3" font-family="Times,serif" font-size="16.00">Grunnlagsdata fra Bibliofil</text>
</g>
<g id="clust2" class="cluster"><title>cluster_2</title>
<polygon fill="none" stroke="white" points="8,-208 8,-664.7 1139,-664.7 1139,-208 8,-208"/>
<text text-anchor="middle" x="173.29" y="-646.3" font-family="Times,serif" font-size="16.00">Bearbeiding, filtrering og sammenslåing av data</text>
</g>
<g id="clust6" class="cluster"><title>cluster_3</title>
<polygon fill="lightgreen" stroke="lightgreen" points="1147,-64 1147,-287.7 1387,-287.7 1387,-64 1147,-64"/>
<text text-anchor="middle" x="1181.88" y="-269.3" font-family="Times,serif" font-size="16.00">LS.EXT</text>
</g>
<!-- vmarc -->
<g id="node1" class="node"><title>vmarc</title>
<polygon fill="lightgrey" stroke="black" points="447.423,-681.2 447.423,-726 542.577,-726 542.577,-681.2 447.423,-681.2"/>
<text text-anchor="middle" x="495" y="-711.2" font-family="Times,serif" font-size="12.00">vmarc</text>
<polyline fill="none" stroke="black" points="447.423,-703.6 542.577,-703.6 "/>
<text text-anchor="middle" x="495" y="-688.8" font-family="Times,serif" font-size="12.00">~1,8 mill. poster</text>
</g>
<!-- catmassage -->
<g id="node20" class="node"><title>catmassage</title>
<ellipse fill="none" stroke="black" cx="603" cy="-611.5" rx="45.2322" ry="18"/>
<text text-anchor="middle" x="603" y="-607.9" font-family="Times,serif" font-size="12.00">catmassage</text>
</g>
<!-- vmarc&#45;&gt;catmassage -->
<g id="edge27" class="edge"><title>vmarc&#45;&gt;catmassage</title>
<path fill="none" stroke="black" d="M520.869,-681.019C537.708,-666.97 559.611,-648.698 576.563,-634.556"/>
<polygon fill="black" stroke="black" points="579.006,-637.075 584.443,-627.982 574.522,-631.7 579.006,-637.075"/>
</g>
<!-- exemp -->
<g id="node2" class="node"><title>exemp</title>
<polygon fill="lightgrey" stroke="black" points="560.588,-681.2 560.588,-726 645.412,-726 645.412,-681.2 560.588,-681.2"/>
<text text-anchor="middle" x="603" y="-711.2" font-family="Times,serif" font-size="12.00">exemp</text>
<polyline fill="none" stroke="black" points="560.588,-703.6 645.412,-703.6 "/>
<text text-anchor="middle" x="603" y="-688.8" font-family="Times,serif" font-size="12.00">~1,3 mill. eks.</text>
</g>
<!-- exemp&#45;&gt;catmassage -->
<g id="edge28" class="edge"><title>exemp&#45;&gt;catmassage</title>
<path fill="none" stroke="black" d="M603,-680.789C603,-668.501 603,-653.037 603,-639.933"/>
<polygon fill="black" stroke="black" points="606.5,-639.603 603,-629.603 599.5,-639.603 606.5,-639.603"/>
</g>
<!-- laaner -->
<g id="node3" class="node"><title>laaner</title>
<polygon fill="lightgrey" stroke="black" points="188.596,-681.2 188.596,-726 285.404,-726 285.404,-681.2 188.596,-681.2"/>
<text text-anchor="middle" x="237" y="-711.2" font-family="Times,serif" font-size="12.00">laaner</text>
<polyline fill="none" stroke="black" points="188.596,-703.6 285.404,-703.6 "/>
<text text-anchor="middle" x="237" y="-688.8" font-family="Times,serif" font-size="12.00">~0,7 mill lånere</text>
</g>
<!-- patronmassage -->
<g id="node21" class="node"><title>patronmassage</title>
<ellipse fill="none" stroke="black" cx="283" cy="-611.5" rx="55.5246" ry="18"/>
<text text-anchor="middle" x="283" y="-607.9" font-family="Times,serif" font-size="12.00">patronmassage</text>
</g>
<!-- laaner&#45;&gt;patronmassage -->
<g id="edge29" class="edge"><title>laaner&#45;&gt;patronmassage</title>
<path fill="none" stroke="black" d="M248.135,-680.789C254.64,-668.049 262.888,-651.894 269.728,-638.496"/>
<polygon fill="black" stroke="black" points="272.985,-639.813 274.415,-629.315 266.751,-636.63 272.985,-639.813"/>
</g>
<!-- lmarc -->
<g id="node4" class="node"><title>lmarc</title>
<polygon fill="lightgrey" stroke="black" points="375,-685.6 375,-721.6 429,-721.6 429,-685.6 375,-685.6"/>
<text text-anchor="middle" x="401.659" y="-700" font-family="Times,serif" font-size="12.00">lmarc</text>
</g>
<!-- lmarc&#45;&gt;patronmassage -->
<g id="edge30" class="edge"><title>lmarc&#45;&gt;patronmassage</title>
<path fill="none" stroke="black" d="M381.629,-685.288C376.574,-681.101 371.133,-676.687 366,-672.7 349.037,-659.526 329.626,-645.398 313.843,-634.141"/>
<polygon fill="black" stroke="black" points="315.667,-631.143 305.487,-628.207 311.614,-636.851 315.667,-631.143"/>
</g>
<!-- lnel -->
<g id="node5" class="node"><title>lnel</title>
<polygon fill="lightgrey" stroke="black" points="303,-685.6 303,-721.6 357,-721.6 357,-685.6 303,-685.6"/>
<text text-anchor="middle" x="329.998" y="-700" font-family="Times,serif" font-size="12.00">lnel</text>
</g>
<!-- lnel&#45;&gt;patronmassage -->
<g id="edge31" class="edge"><title>lnel&#45;&gt;patronmassage</title>
<path fill="none" stroke="black" d="M320.938,-685.228C314.067,-672.056 304.508,-653.73 296.704,-638.77"/>
<polygon fill="black" stroke="black" points="299.603,-636.761 291.875,-629.513 293.397,-639.998 299.603,-636.761"/>
</g>
<!-- catalogue.mrc -->
<g id="node6" class="node"><title>catalogue.mrc</title>
<polygon fill="none" stroke="black" points="965.181,-512.2 965.181,-557 1130.82,-557 1130.82,-512.2 965.181,-512.2"/>
<text text-anchor="middle" x="1048" y="-542.2" font-family="Times,serif" font-size="12.00">catalogue.mrc</text>
<polyline fill="none" stroke="black" points="965.181,-534.6 1130.82,-534.6 "/>
<text text-anchor="middle" x="1048" y="-519.8" font-family="Times,serif" font-size="12.00">~400,000 poster, ~1,1 mill eks.</text>
</g>
<!-- bulkmarcimport -->
<g id="node28" class="node"><title>bulkmarcimport</title>
<ellipse fill="none" stroke="black" cx="1215" cy="-234.5" rx="59.7035" ry="18"/>
<text text-anchor="middle" x="1215" y="-230.9" font-family="Times,serif" font-size="12.00">bulkmarcimport</text>
</g>
<!-- catalogue.mrc&#45;&gt;bulkmarcimport -->
<g id="edge21" class="edge"><title>catalogue.mrc&#45;&gt;bulkmarcimport</title>
<path fill="none" stroke="black" d="M1060.01,-512.161C1089.98,-458.669 1167.97,-319.457 1200.46,-261.457"/>
<polygon fill="black" stroke="black" points="1203.61,-262.989 1205.45,-252.554 1197.51,-259.567 1203.61,-262.989"/>
</g>
<!-- catalogue.marcxml -->
<g id="node7" class="node"><title>catalogue.marcxml</title>
<polygon fill="none" stroke="black" points="804.765,-512.2 804.765,-557 947.235,-557 947.235,-512.2 804.765,-512.2"/>
<text text-anchor="middle" x="876" y="-542.2" font-family="Times,serif" font-size="12.00">catalogue.marcxml</text>
<polyline fill="none" stroke="black" points="804.765,-534.6 947.235,-534.6 "/>
<text text-anchor="middle" x="876" y="-519.8" font-family="Times,serif" font-size="12.00">~400,000 poster, uten eks.</text>
</g>
<!-- migmarc2rdf -->
<g id="node17" class="node"><title>migmarc2rdf</title>
<ellipse fill="none" stroke="black" cx="925" cy="-457.7" rx="50.4588" ry="18"/>
<text text-anchor="middle" x="925" y="-454.1" font-family="Times,serif" font-size="12.00">migmarc2rdf</text>
</g>
<!-- catalogue.marcxml&#45;&gt;migmarc2rdf -->
<g id="edge14" class="edge"><title>catalogue.marcxml&#45;&gt;migmarc2rdf</title>
<path fill="none" stroke="black" d="M890.173,-511.936C895.854,-503.252 902.442,-493.181 908.349,-484.152"/>
<polygon fill="black" stroke="black" points="911.425,-485.843 913.971,-475.559 905.567,-482.011 911.425,-485.843"/>
</g>
<!-- categories.sql -->
<g id="node8" class="node"><title>categories.sql</title>
<polygon fill="none" stroke="black" points="273.853,-516.6 273.853,-552.6 372.147,-552.6 372.147,-516.6 273.853,-516.6"/>
<text text-anchor="middle" x="323" y="-531" font-family="Times,serif" font-size="12.00">patron categories</text>
</g>
<!-- SQL -->
<g id="node19" class="node"><title>SQL</title>
<ellipse fill="none" stroke="black" cx="507" cy="-457.7" rx="46.7366" ry="18"/>
<text text-anchor="middle" x="507" y="-454.1" font-family="Times,serif" font-size="12.00">SQL inserts</text>
</g>
<!-- categories.sql&#45;&gt;SQL -->
<g id="edge9" class="edge"><title>categories.sql&#45;&gt;SQL</title>
<path fill="none" stroke="black" d="M365.213,-516.416C395.754,-503.984 436.769,-487.289 466.828,-475.052"/>
<polygon fill="black" stroke="black" points="468.233,-478.259 476.176,-471.247 465.594,-471.776 468.233,-478.259"/>
</g>
<!-- branches.sql -->
<g id="node9" class="node"><title>branches.sql</title>
<polygon fill="none" stroke="black" points="389.679,-516.6 389.679,-552.6 512.321,-552.6 512.321,-516.6 389.679,-516.6"/>
<text text-anchor="middle" x="451" y="-531" font-family="Times,serif" font-size="12.00">item holding branches</text>
</g>
<!-- branches.sql&#45;&gt;SQL -->
<g id="edge10" class="edge"><title>branches.sql&#45;&gt;SQL</title>
<path fill="none" stroke="black" d="M463.988,-516.228C471.28,-506.476 480.5,-494.144 488.532,-483.402"/>
<polygon fill="black" stroke="black" points="491.474,-485.311 494.659,-475.207 485.867,-481.12 491.474,-485.311"/>
</g>
<!-- homebranches.sql -->
<g id="node10" class="node"><title>homebranches.sql</title>
<polygon fill="none" stroke="black" points="132.523,-516.6 132.523,-552.6 255.477,-552.6 255.477,-516.6 132.523,-516.6"/>
<text text-anchor="middle" x="194" y="-531" font-family="Times,serif" font-size="12.00">patron home&#45;branches</text>
</g>
<!-- homebranches.sql&#45;&gt;SQL -->
<g id="edge11" class="edge"><title>homebranches.sql&#45;&gt;SQL</title>
<path fill="none" stroke="black" d="M247.749,-516.504C253.553,-514.813 259.386,-513.178 265,-511.7 330.43,-494.476 406.827,-478.407 456.006,-468.578"/>
<polygon fill="black" stroke="black" points="456.948,-471.959 466.074,-466.577 455.583,-465.093 456.948,-471.959"/>
</g>
<!-- itypes.sql -->
<g id="node11" class="node"><title>itypes.sql</title>
<polygon fill="none" stroke="black" points="530.17,-516.6 530.17,-552.6 595.83,-552.6 595.83,-516.6 530.17,-516.6"/>
<text text-anchor="middle" x="563" y="-531" font-family="Times,serif" font-size="12.00">item types</text>
</g>
<!-- itypes.sql&#45;&gt;SQL -->
<g id="edge12" class="edge"><title>itypes.sql&#45;&gt;SQL</title>
<path fill="none" stroke="black" d="M550.012,-516.228C542.72,-506.476 533.5,-494.144 525.468,-483.402"/>
<polygon fill="black" stroke="black" points="528.133,-481.12 519.341,-475.207 522.526,-485.311 528.133,-481.12"/>
</g>
<!-- avalues.sql -->
<g id="node12" class="node"><title>avalues.sql</title>
<polygon fill="none" stroke="black" points="613.528,-516.6 613.528,-552.6 786.472,-552.6 786.472,-516.6 613.528,-516.6"/>
<text text-anchor="middle" x="700" y="-531" font-family="Times,serif" font-size="12.00">authorized values (item statuses)</text>
</g>
<!-- avalues.sql&#45;&gt;SQL -->
<g id="edge13" class="edge"><title>avalues.sql&#45;&gt;SQL</title>
<path fill="none" stroke="black" d="M655.722,-516.416C623.347,-503.852 579.75,-486.933 548.135,-474.664"/>
<polygon fill="black" stroke="black" points="549.323,-471.371 538.734,-471.015 546.79,-477.896 549.323,-471.371"/>
</g>
<!-- patrons.csv -->
<g id="node13" class="node"><title>patrons.csv</title>
<polygon fill="none" stroke="black" points="15.7656,-512.2 15.7656,-557 114.234,-557 114.234,-512.2 15.7656,-512.2"/>
<text text-anchor="middle" x="65" y="-542.2" font-family="Times,serif" font-size="12.00">patrons.csv</text>
<polyline fill="none" stroke="black" points="15.7656,-534.6 114.234,-534.6 "/>
<text text-anchor="middle" x="65" y="-519.8" font-family="Times,serif" font-size="12.00">~250,000 lånere</text>
</g>
<!-- import_patrons.sql -->
<g id="node15" class="node"><title>import_patrons.sql</title>
<ellipse fill="none" stroke="black" cx="202" cy="-457.7" rx="71.5519" ry="18"/>
<text text-anchor="middle" x="202" y="-454.1" font-family="Times,serif" font-size="12.00">import patrons SQL</text>
</g>
<!-- patrons.csv&#45;&gt;import_patrons.sql -->
<g id="edge20" class="edge"><title>patrons.csv&#45;&gt;import_patrons.sql</title>
<path fill="none" stroke="black" d="M104.259,-512.137C123.149,-501.809 145.691,-489.485 164.365,-479.276"/>
<polygon fill="black" stroke="black" points="166.092,-482.32 173.188,-474.452 162.734,-476.178 166.092,-482.32"/>
</g>
<!-- resources.nt -->
<g id="node14" class="node"><title>resources.nt</title>
<polygon fill="none" stroke="black" points="1036.18,-216.5 1036.18,-252.5 1123.82,-252.5 1123.82,-216.5 1036.18,-216.5"/>
<text text-anchor="middle" x="1080" y="-230.9" font-family="Times,serif" font-size="12.00">RDF resources</text>
</g>
<!-- Fuseki -->
<g id="node25" class="node"><title>Fuseki</title>
<polygon fill="none" stroke="black" points="1209,-180 1159,-180 1155,-176 1155,-144 1205,-144 1209,-148 1209,-180"/>
<polyline fill="none" stroke="black" points="1205,-176 1155,-176 "/>
<polyline fill="none" stroke="black" points="1205,-176 1205,-144 "/>
<polyline fill="none" stroke="black" points="1205,-176 1209,-180 "/>
<text text-anchor="middle" x="1182" y="-158.4" font-family="Times,serif" font-size="12.00">Fuseki</text>
</g>
<!-- resources.nt&#45;&gt;Fuseki -->
<g id="edge34" class="edge"><title>resources.nt&#45;&gt;Fuseki</title>
<path fill="none" stroke="black" d="M1104.69,-216.434C1117.87,-207.322 1134.29,-195.978 1148.59,-186.089"/>
<polygon fill="black" stroke="black" points="1150.95,-188.718 1157.18,-180.153 1146.97,-182.96 1150.95,-188.718"/>
</g>
<!-- MySQL -->
<g id="node26" class="node"><title>MySQL</title>
<polygon fill="none" stroke="black" points="1210.83,-108 1159.17,-108 1155.17,-104 1155.17,-72 1206.83,-72 1210.83,-76 1210.83,-108"/>
<polyline fill="none" stroke="black" points="1206.83,-104 1155.17,-104 "/>
<polyline fill="none" stroke="black" points="1206.83,-104 1206.83,-72 "/>
<polyline fill="none" stroke="black" points="1206.83,-104 1210.83,-108 "/>
<text text-anchor="middle" x="1183" y="-86.4" font-family="Times,serif" font-size="12.00">MySQL</text>
</g>
<!-- import_patrons.sql&#45;&gt;MySQL -->
<g id="edge32" class="edge"><title>import_patrons.sql&#45;&gt;MySQL</title>
<path fill="none" stroke="black" d="M239.605,-442.187C286.052,-421.512 359,-378.832 359,-314.7 359,-314.7 359,-314.7 359,-233.5 359,-152.695 982.207,-104.661 1144.66,-93.5131"/>
<polygon fill="black" stroke="black" points="1145.37,-96.9727 1155.11,-92.8031 1144.9,-89.9887 1145.37,-96.9727"/>
</g>
<!-- virtuoso -->
<g id="node16" class="node"><title>virtuoso</title>
<polygon fill="none" stroke="black" points="984.48,-403.7 881.52,-403.7 877.52,-399.7 877.52,-367.7 980.48,-367.7 984.48,-371.7 984.48,-403.7"/>
<polyline fill="none" stroke="black" points="980.48,-399.7 877.52,-399.7 "/>
<polyline fill="none" stroke="black" points="980.48,-399.7 980.48,-367.7 "/>
<polyline fill="none" stroke="black" points="980.48,-399.7 984.48,-403.7 "/>
<text text-anchor="middle" x="931" y="-382.1" font-family="Times,serif" font-size="12.00">virtuoso triplestore</text>
</g>
<!-- SPARQL -->
<g id="node18" class="node"><title>SPARQL</title>
<ellipse fill="none" stroke="black" cx="931" cy="-313.7" rx="56.3251" ry="18"/>
<text text-anchor="middle" x="931" y="-310.1" font-family="Times,serif" font-size="12.00">SPARQL rules</text>
</g>
<!-- virtuoso&#45;&gt;SPARQL -->
<g id="edge18" class="edge"><title>virtuoso&#45;&gt;SPARQL</title>
<path fill="none" stroke="black" d="M925.084,-367.397C924.289,-359.683 924.062,-350.412 924.405,-341.812"/>
<polygon fill="black" stroke="black" points="927.898,-342.024 925.105,-331.804 920.915,-341.536 927.898,-342.024"/>
</g>
<!-- construct -->
<g id="node22" class="node"><title>construct</title>
<ellipse fill="none" stroke="black" cx="1068" cy="-313.7" rx="38.1254" ry="18"/>
<text text-anchor="middle" x="1068" y="-310.1" font-family="Times,serif" font-size="12.00">construct</text>
</g>
<!-- virtuoso&#45;&gt;construct -->
<g id="edge16" class="edge"><title>virtuoso&#45;&gt;construct</title>
<path fill="none" stroke="black" d="M964.514,-367.576C985.629,-356.787 1012.81,-342.9 1034.01,-332.066"/>
<polygon fill="black" stroke="black" points="1035.68,-335.143 1043,-327.476 1032.5,-328.909 1035.68,-335.143"/>
</g>
<!-- migmarc2rdf&#45;&gt;virtuoso -->
<g id="edge15" class="edge"><title>migmarc2rdf&#45;&gt;virtuoso</title>
<path fill="none" stroke="black" d="M926.483,-439.397C927.144,-431.683 927.939,-422.412 928.676,-413.812"/>
<polygon fill="black" stroke="black" points="932.167,-414.067 929.534,-403.804 925.193,-413.469 932.167,-414.067"/>
</g>
<!-- SPARQL&#45;&gt;virtuoso -->
<g id="edge19" class="edge"><title>SPARQL&#45;&gt;virtuoso</title>
<path fill="none" stroke="black" d="M936.895,-331.804C937.701,-339.491 937.937,-348.754 937.604,-357.365"/>
<polygon fill="black" stroke="black" points="934.109,-357.18 936.916,-367.397 941.092,-357.66 934.109,-357.18"/>
</g>
<!-- SQL&#45;&gt;MySQL -->
<g id="edge33" class="edge"><title>SQL&#45;&gt;MySQL</title>
<path fill="none" stroke="black" d="M544.993,-446.891C600.44,-430.021 697,-389.855 697,-314.7 697,-314.7 697,-314.7 697,-233.5 697,-140.241 1030.7,-103.692 1145.07,-93.9041"/>
<polygon fill="black" stroke="black" points="1145.45,-97.3847 1155.12,-93.0647 1144.87,-90.409 1145.45,-97.3847"/>
</g>
<!-- catmassage&#45;&gt;catalogue.mrc -->
<g id="edge1" class="edge"><title>catmassage&#45;&gt;catalogue.mrc</title>
<path fill="none" stroke="black" d="M645.581,-605.291C710.3,-597.114 837.463,-580.037 954.941,-557.635"/>
<polygon fill="black" stroke="black" points="955.665,-561.06 964.824,-555.733 954.342,-554.186 955.665,-561.06"/>
</g>
<!-- catmassage&#45;&gt;catalogue.marcxml -->
<g id="edge2" class="edge"><title>catmassage&#45;&gt;catalogue.marcxml</title>
<path fill="none" stroke="black" d="M638.971,-600.631C678.417,-589.809 742.997,-572.091 794.793,-557.88"/>
<polygon fill="black" stroke="black" points="795.921,-561.2 804.639,-555.179 794.069,-554.449 795.921,-561.2"/>
</g>
<!-- catmassage&#45;&gt;branches.sql -->
<g id="edge3" class="edge"><title>catmassage&#45;&gt;branches.sql</title>
<path fill="none" stroke="black" d="M575.825,-597.109C553.39,-586.054 521.11,-570.148 494.998,-557.28"/>
<polygon fill="black" stroke="black" points="496.203,-553.973 485.686,-552.692 493.109,-560.252 496.203,-553.973"/>
</g>
<!-- catmassage&#45;&gt;itypes.sql -->
<g id="edge4" class="edge"><title>catmassage&#45;&gt;itypes.sql</title>
<path fill="none" stroke="black" d="M593.923,-593.504C588.896,-584.09 582.54,-572.189 576.9,-561.628"/>
<polygon fill="black" stroke="black" points="579.977,-559.96 572.179,-552.788 573.803,-563.258 579.977,-559.96"/>
</g>
<!-- catmassage&#45;&gt;avalues.sql -->
<g id="edge5" class="edge"><title>catmassage&#45;&gt;avalues.sql</title>
<path fill="none" stroke="black" d="M623.098,-594.981C636.583,-584.568 654.59,-570.664 669.79,-558.927"/>
<polygon fill="black" stroke="black" points="672.122,-561.548 677.898,-552.666 667.844,-556.008 672.122,-561.548"/>
</g>
<!-- patronmassage&#45;&gt;categories.sql -->
<g id="edge6" class="edge"><title>patronmassage&#45;&gt;categories.sql</title>
<path fill="none" stroke="black" d="M292.077,-593.504C297.104,-584.09 303.46,-572.189 309.1,-561.628"/>
<polygon fill="black" stroke="black" points="312.197,-563.258 313.821,-552.788 306.023,-559.96 312.197,-563.258"/>
</g>
<!-- patronmassage&#45;&gt;homebranches.sql -->
<g id="edge7" class="edge"><title>patronmassage&#45;&gt;homebranches.sql</title>
<path fill="none" stroke="black" d="M263.688,-594.248C251.466,-583.962 235.463,-570.494 221.875,-559.059"/>
<polygon fill="black" stroke="black" points="224.105,-556.361 214.201,-552.6 219.598,-561.717 224.105,-556.361"/>
</g>
<!-- patronmassage&#45;&gt;patrons.csv -->
<g id="edge8" class="edge"><title>patronmassage&#45;&gt;patrons.csv</title>
<path fill="none" stroke="black" d="M244.969,-598.221C212.681,-587.702 165.168,-571.997 124,-557.5 123.903,-557.466 123.807,-557.432 123.71,-557.398"/>
<polygon fill="black" stroke="black" points="125.125,-554.187 114.531,-554.123 122.773,-560.78 125.125,-554.187"/>
</g>
<!-- construct&#45;&gt;resources.nt -->
<g id="edge17" class="edge"><title>construct&#45;&gt;resources.nt</title>
<path fill="none" stroke="black" d="M1070.66,-295.567C1072.17,-285.872 1074.09,-273.528 1075.79,-262.555"/>
<polygon fill="black" stroke="black" points="1079.27,-263.004 1077.34,-252.585 1072.35,-261.929 1079.27,-263.004"/>
</g>
<!-- Services -->
<g id="node23" class="node"><title>Services</title>
<ellipse fill="none" stroke="black" cx="1329" cy="-234.5" rx="36.3625" ry="18"/>
<text text-anchor="middle" x="1329" y="-230.9" font-family="Times,serif" font-size="12.00">Services</text>
</g>
<!-- Koha -->
<g id="node24" class="node"><title>Koha</title>
<ellipse fill="none" stroke="black" cx="1254" cy="-162" rx="27" ry="18"/>
<text text-anchor="middle" x="1254" y="-158.4" font-family="Times,serif" font-size="12.00">Koha</text>
</g>
<!-- Services&#45;&gt;Koha -->
<g id="edge24" class="edge"><title>Services&#45;&gt;Koha</title>
<path fill="none" stroke="black" d="M1312.73,-218.203C1302.05,-208.17 1287.96,-194.922 1276.25,-183.919"/>
<polygon fill="black" stroke="black" points="1278.65,-181.368 1268.97,-177.07 1273.86,-186.469 1278.65,-181.368"/>
</g>
<!-- Services&#45;&gt;Fuseki -->
<g id="edge25" class="edge"><title>Services&#45;&gt;Fuseki</title>
<path fill="none" stroke="black" d="M1306.38,-220.014C1299.3,-215.977 1291.41,-211.656 1284,-208 1257.88,-195.112 1248.66,-193.275 1218.25,-179.994"/>
<polygon fill="black" stroke="black" points="1219.63,-176.781 1209.07,-175.926 1216.8,-183.18 1219.63,-176.781"/>
</g>
<!-- Elasticsearch -->
<g id="node27" class="node"><title>Elasticsearch</title>
<polygon fill="none" stroke="black" points="1378.8,-180 1303.2,-180 1299.2,-176 1299.2,-144 1374.8,-144 1378.8,-148 1378.8,-180"/>
<polyline fill="none" stroke="black" points="1374.8,-176 1299.2,-176 "/>
<polyline fill="none" stroke="black" points="1374.8,-176 1374.8,-144 "/>
<polyline fill="none" stroke="black" points="1374.8,-176 1378.8,-180 "/>
<text text-anchor="middle" x="1339" y="-158.4" font-family="Times,serif" font-size="12.00">Elasticsearch</text>
</g>
<!-- Services&#45;&gt;Elasticsearch -->
<g id="edge26" class="edge"><title>Services&#45;&gt;Elasticsearch</title>
<path fill="none" stroke="black" d="M1331.42,-216.434C1332.52,-208.67 1333.85,-199.284 1335.09,-190.56"/>
<polygon fill="black" stroke="black" points="1338.59,-190.791 1336.53,-180.399 1331.66,-189.808 1338.59,-190.791"/>
</g>
<!-- Koha&#45;&gt;MySQL -->
<g id="edge23" class="edge"><title>Koha&#45;&gt;MySQL</title>
<path fill="none" stroke="black" d="M1239.29,-146.496C1230.2,-137.538 1218.31,-125.813 1207.8,-115.45"/>
<polygon fill="black" stroke="black" points="1210.03,-112.732 1200.45,-108.204 1205.11,-117.717 1210.03,-112.732"/>
</g>
<!-- sync -->
<g id="node29" class="node"><title>sync</title>
<ellipse fill="none" stroke="black" cx="1211" cy="-18" rx="27" ry="18"/>
<text text-anchor="middle" x="1211" y="-14.4" font-family="Times,serif" font-size="12.00">sync</text>
</g>
<!-- MySQL&#45;&gt;sync -->
<g id="edge35" class="edge"><title>MySQL&#45;&gt;sync</title>
<path fill="none" stroke="black" d="M1189.92,-71.6966C1193.12,-63.6955 1196.99,-54.02 1200.54,-45.1548"/>
<polygon fill="black" stroke="black" points="1203.89,-46.207 1204.35,-35.6223 1197.39,-43.6072 1203.89,-46.207"/>
</g>
<!-- bulkmarcimport&#45;&gt;Koha -->
<g id="edge22" class="edge"><title>bulkmarcimport&#45;&gt;Koha</title>
<path fill="none" stroke="black" d="M1224.44,-216.434C1229.11,-207.998 1234.83,-197.65 1240,-188.314"/>
<polygon fill="black" stroke="black" points="1243.14,-189.868 1244.91,-179.423 1237.01,-186.48 1243.14,-189.868"/>
</g>
<!-- sync&#45;&gt;Fuseki -->
<g id="edge36" class="edge"><title>sync&#45;&gt;Fuseki</title>
<path fill="none" stroke="black" d="M1216.67,-35.8268C1221.91,-54.0464 1227.79,-83.7524 1220,-108 1216.81,-117.92 1211,-127.557 1204.87,-135.833"/>
<polygon fill="black" stroke="black" points="1201.93,-133.908 1198.46,-143.919 1207.42,-138.257 1201.93,-133.908"/>
</g>
<!-- indexing -->
<g id="node30" class="node"><title>indexing</title>
<ellipse fill="none" stroke="black" cx="1329" cy="-313.7" rx="37.0846" ry="18"/>
<text text-anchor="middle" x="1329" y="-310.1" font-family="Times,serif" font-size="12.00">indexing</text>
</g>
<!-- indexing&#45;&gt;Services -->
<g id="edge37" class="edge"><title>indexing&#45;&gt;Services</title>
<path fill="none" stroke="black" d="M1329,-295.567C1329,-285.972 1329,-273.782 1329,-262.894"/>
<polygon fill="black" stroke="black" points="1332.5,-262.585 1329,-252.585 1325.5,-262.585 1332.5,-262.585"/>
</g>
</g>
</svg>