<?xml version="1.0" encoding="UTF-8" standalone="no"?>
<!-- Generator: Adobe Illustrator 16.0.0, SVG Export Plug-In . SVG Version: 6.00 Build 0)  -->

<svg
   xmlns:dc="http://purl.org/dc/elements/1.1/"
   xmlns:cc="http://creativecommons.org/ns#"
   xmlns:rdf="http://www.w3.org/1999/02/22-rdf-syntax-ns#"
   xmlns="http://www.w3.org/2000/svg"
   xmlns:sodipodi="http://sodipodi.sourceforge.net/DTD/sodipodi-0.dtd"
   xmlns:inkscape="http://www.inkscape.org/namespaces/inkscape"
   version="1.1"
   id="Layer_1"
   x="0px"
   y="0px"
   width="65px"
   height="86.686px"
   viewBox="0 0 65 86.686"
   enable-background="new 0 0 65 86.686"
   xml:space="preserve"
   inkscape:version="0.91 r13725"
   sodipodi:docname="ident-dfb-small.svg"><metadata
     id="metadata3519"><rdf:RDF><cc:Work
         rdf:about=""><dc:format>image/svg+xml</dc:format><dc:type
           rdf:resource="http://purl.org/dc/dcmitype/StillImage" /><dc:title></dc:title></cc:Work></rdf:RDF></metadata><defs
     id="defs3517" /><sodipodi:namedview
     pagecolor="#ffffff"
     bordercolor="#666666"
     borderopacity="1"
     objecttolerance="10"
     gridtolerance="10"
     guidetolerance="10"
     inkscape:pageopacity="0"
     inkscape:pageshadow="2"
     inkscape:window-width="2404"
     inkscape:window-height="1235"
     id="namedview3515"
     showgrid="false"
     inkscape:zoom="9.5077031"
     inkscape:cx="97.255997"
     inkscape:cy="43.342999"
     inkscape:window-x="0"
     inkscape:window-y="0"
     inkscape:window-maximized="0"
     inkscape:current-layer="g3447" /><g
     id="g3447" /><g
     id="g3497"><path
       fill="#979800"
       d="M25.624,48.931H7.132v-9.62h15.173c6.992,0,6.693-6.324,6.693-6.324l0.001-10.346H21.87v9.513H7.152   c-7.414,0-7.15,7.124-7.15,7.124l0.005,9.656c0,0-0.221,7.153,7.145,7.153h18.473c1.884,0,3.41-1.6,3.41-3.578   C29.034,50.535,27.509,48.931,25.624,48.931"
       id="path3499" /><path
       fill="#D6006E"
       d="M36.027,69.156c0,1.978,1.528,3.579,3.41,3.579h18.473c7.367,0,7.146-7.154,7.146-7.154l0.003-9.657   c0,0,0.265-7.124-7.15-7.124H43.191v-9.514h-7.127v10.349c0,0-0.299,6.322,6.693,6.322h15.173v9.622H39.437   C37.554,65.579,36.027,67.182,36.027,69.156"
       id="path3501" /><path
       fill="#EC6A06"
       d="M42.071,13.614c-4.469,0-6.013,3.094-6.013,6.18v12.344h7.13V20.77H64.51v-7.157H42.071z"
       id="path3503" /><path
       fill="#EC6A06"
       d="M36.051,7.021l25.642,0.001c1.855,0,3.359-1.594,3.359-3.562s-1.504-3.563-3.359-3.563L36.046-0.105   L36.051,7.021z"
       id="path3505" /><rect
       x="22.316"
       y="7.466"
       transform="matrix(0.7071 -0.7071 0.7071 0.7071 0.0286 20.9328)"
       fill="#FFD400"
       width="5.932"
       height="5.932"
       id="rect3507" /><rect
       x="51.019"
       y="32.792"
       transform="matrix(0.7071 -0.7071 0.7071 0.7071 -9.4729 48.6465)"
       fill="#D1BF00"
       width="5.932"
       height="5.932"
       id="rect3509" /><rect
       x="22.326"
       y="66.333"
       transform="matrix(0.7069 -0.7073 0.7073 0.7069 -41.6035 38.2016)"
       fill="#00A1D4"
       width="5.934"
       height="5.934"
       id="rect3511" /><rect
       x="22.326"
       y="79.329"
       transform="matrix(0.7071 -0.7071 0.7071 0.7071 -50.7858 41.9928)"
       fill="#BDE3F2"
       width="5.933"
       height="5.933"
       id="rect3513" /></g></svg>