<?xml version="1.0" encoding="utf-8"?>
<!-- Generator: Adobe Illustrator 16.0.0, SVG Export Plug-In . SVG Version: 6.00 Build 0)  -->
<!DOCTYPE svg PUBLIC "-//W3C//DTD SVG 1.1//EN" "http://www.w3.org/Graphics/SVG/1.1/DTD/svg11.dtd">
<svg version="1.1" id="Layer_1" xmlns="http://www.w3.org/2000/svg"  x="0px" y="0px"
	 width="194.512px" height="86.686px" viewBox="0 0 194.512 86.686" enable-background="new 0 0 194.512 86.686"
	 xml:space="preserve">
<g>
	<path d="M81.708,13.119h4.683c5.292,0,7.346,1.479,7.346,6.847c0,5.271-2.199,6.865-7.492,6.865h-4.535L81.708,13.119
		L81.708,13.119z M86.353,24.76c4.036,0,5.126-1.276,5.126-4.793c0-3.553-0.907-4.719-5.051-4.719h-2.48v9.512H86.353z"/>
	<path d="M95.213,21.633c0-2.943,0.925-5.404,5.145-5.404c4.366,0,4.517,3.035,4.439,6.312h-7.493
		c0.129,1.629,0.776,2.646,3.09,2.646c1.647,0,2.462-0.426,3.257-1l1.146,1.5c-1.186,0.906-2.422,1.353-4.403,1.353
		C96.063,27.036,95.213,24.611,95.213,21.633z M97.304,20.67h5.459c-0.093-1.481-0.24-2.536-2.46-2.536
		C98.155,18.135,97.471,19.134,97.304,20.67z"/>
	<path d="M105.979,16.469h1.853l0.39-2.775l1.684-0.353v3.127h2.646v1.962h-2.646v5.106c0,0.868,0.111,1.388,1.444,1.388h1.202
		v1.906c-0.296,0.02-1.258,0.02-1.609,0.02c-2.57,0-3.184-0.926-3.184-2.999V18.43h-1.777L105.979,16.469L105.979,16.469z"/>
	<path d="M80.728,43.191h1.962v-0.759c0-2.165,0.739-3.479,3.479-3.479c0.479,0,1.036,0,1.259,0.019v1.869h-0.981
		c-1.312,0-1.628,0.63-1.628,1.592v0.759h2.609v1.96h-2.609v8.402H82.69v-8.402h-1.962V43.191z M88.944,50.704V39.193h2.166v11.251
		c0,0.908,0.129,1.203,1.094,1.203h0.389v1.891c-0.188,0.018-0.648,0.033-1.147,0.033C89.667,53.572,88.944,52.849,88.944,50.704z"
		/>
	<path d="M93.676,48.353c0-2.939,0.926-5.401,5.146-5.401c4.367,0,4.516,3.032,4.439,6.311h-7.494
		c0.13,1.627,0.777,2.645,3.09,2.645c1.646,0,2.462-0.424,3.26-1l1.146,1.5c-1.184,0.908-2.424,1.354-4.404,1.354
		C94.528,53.757,93.676,51.333,93.676,48.353z M95.768,47.39h5.459c-0.092-1.479-0.24-2.533-2.461-2.533
		C96.62,44.857,95.936,45.855,95.768,47.39z"/>
	<path d="M105.388,43.32l1.684-0.129l0.224,1.187c0.426-0.705,1.684-1.259,3.439-1.296v2.164c-2.479,0.02-3.182,1.186-3.182,2.979
		v5.33h-2.165V43.32z"/>
	<path d="M111.307,52.48l1.109-1.664c1.146,0.738,2.518,1.057,3.645,1.057c1.667,0,2.296-0.24,2.296-1.277
		c0-0.852-0.573-1.018-2.274-1.295c-2.479-0.389-4.2-0.779-4.2-3.275c0-1.963,1.13-3.071,4.2-3.071c1.606,0,3.053,0.333,4.068,0.926
		l-1.018,1.773c-0.759-0.406-1.851-0.702-2.997-0.702c-1.701,0-2.128,0.392-2.128,1.073c0,0.832,0.557,1.035,2.128,1.295
		c2.571,0.426,4.312,0.74,4.312,3.162c0,2.369-1.297,3.26-4.516,3.26C114.36,53.74,112.713,53.423,111.307,52.48z"/>
	<path d="M122.351,43.32l1.687-0.129l0.184,1c0.557-0.776,1.666-1.239,3.943-1.239c3.496,0,4.422,2.293,4.422,5.401
		c0,3.092-0.965,5.369-4.534,5.369c-2.054,0-3.036-0.391-3.536-1.131v4.018h-2.163L122.351,43.32L122.351,43.32z M130.401,48.427
		c0-2.035-0.519-3.404-2.736-3.404c-2.294,0-3.148,0.943-3.148,3.404c0,2.443,0.779,3.35,3.148,3.35
		C129.844,51.777,130.401,50.462,130.401,48.427z"/>
	<path d="M134.633,43.32l1.685-0.129l0.226,1.187c0.425-0.705,1.684-1.259,3.44-1.296v2.164c-2.479,0.02-3.185,1.186-3.185,2.979
		v5.33h-2.166V43.32z"/>
	<path d="M140.645,50.575c0-2.943,1.667-3.795,6.755-3.795h0.521c-0.036-1.24-0.368-1.814-2.422-1.814
		c-1.277,0-2.354,0.48-2.999,0.871l-1.129-1.686c0.701-0.48,2.403-1.204,4.348-1.204c3.609,0,4.275,1.204,4.275,4.146v3.479
		c0,0.943,0.072,1.092,0.979,1.092v1.871c-0.146,0.033-0.427,0.033-0.888,0.033c-1.053,0-1.557-0.201-1.832-1.072
		c-0.594,0.797-1.721,1.24-3.851,1.24C141.35,53.74,140.645,52.331,140.645,50.575z M147.918,49.093v-0.535h-0.39
		c-4.069,0-4.85,0.461-4.85,1.852c0,0.963,0.446,1.479,2.091,1.479C146.993,51.888,147.918,51.036,147.918,49.093z M143.422,39.916
		c0-1.428,0.722-2.535,2.44-2.535c1.649,0,2.428,1.107,2.428,2.535c0,1.404-0.776,2.498-2.428,2.498
		C144.144,42.414,143.422,41.322,143.422,39.916z M147.141,39.916c0-0.762-0.369-1.354-1.274-1.354
		c-0.943,0-1.296,0.592-1.296,1.354c0,0.758,0.353,1.332,1.296,1.332C146.772,41.248,147.141,40.674,147.141,39.916z"/>
	<path d="M152.986,39.193h2.129v8.976l4.22-4.978h2.389l-3.608,4.292l3.96,6.07h-2.387l-2.999-4.498l-1.57,1.797v2.701h-2.131
		L152.986,39.193L152.986,39.193z"/>
	<path d="M163.586,50.704V39.193h2.127v11.251c0,0.908,0.146,1.203,1.107,1.203c0.038,0,0.334,0,0.392,0v1.891
		c-0.187,0.018-0.648,0.033-1.148,0.033C164.308,53.572,163.586,52.849,163.586,50.704z"/>
	<path d="M169.431,39.693h2.166v2.369h-2.166V39.693z M169.451,43.191h2.129v10.363h-2.129V43.191z"/>
	<path d="M176.924,49.667c-0.111,0.146-0.187,0.334-0.187,0.52c0,0.572,0.389,0.686,1.943,0.686c3.996,0,5.162,0.609,5.162,2.773
		c0,2.293-1.554,3.223-5.367,3.223c-3.625,0-5.066-0.482-5.066-2.557c0-1.166,0.554-2.072,2.069-2.387
		c-0.499-0.314-0.646-0.814-0.646-1.389c0-0.498,0.147-1.035,0.426-1.443c-0.854-0.555-1.257-1.424-1.257-2.646
		c0-2.275,1.33-3.479,4.533-3.479h0.258l4.628-0.74v1.777h-1.61c0.813,0.441,1.275,1.166,1.275,2.441c0,2.297-1.387,3.33-4.551,3.33
		C177.924,49.779,177.388,49.741,176.924,49.667z M181.662,53.757c0-0.943-0.76-1.146-3.109-1.146c-2.645,0-2.979,0.555-2.979,1.33
		c0,0.945,0.758,1.262,2.979,1.262C181.069,55.2,181.662,54.7,181.662,53.757z M180.958,46.448c0-1.168-0.739-1.666-2.424-1.666
		c-1.797,0-2.443,0.498-2.443,1.666c0,1.146,0.646,1.664,2.443,1.664C180.328,48.113,180.958,47.593,180.958,46.448z"/>
	<path d="M184.916,48.353c0-2.939,0.925-5.401,5.145-5.401c4.365,0,4.516,3.032,4.44,6.311h-7.493
		c0.129,1.627,0.777,2.645,3.088,2.645c1.649,0,2.462-0.424,3.26-1l1.146,1.5c-1.187,0.908-2.423,1.354-4.405,1.354
		C185.767,53.757,184.916,51.333,184.916,48.353z M187.007,47.39h5.457c-0.092-1.479-0.239-2.533-2.46-2.533
		C187.858,44.857,187.174,45.855,187.007,47.39z"/>
	<path d="M83.375,79.294l-0.426,1.074l-1.464-0.166V65.915h2.146v4.902c0.573-0.775,1.702-1.146,3.664-1.146
		c3.497,0,4.422,2.312,4.422,5.404c0,3.105-0.98,5.385-4.552,5.385C85.04,80.46,83.985,80.072,83.375,79.294z M89.536,75.167
		c0-2.057-0.52-3.424-2.738-3.424c-2.294,0-3.146,0.963-3.146,3.424c0,2.439,0.778,3.367,3.146,3.367
		C88.981,78.534,89.536,77.185,89.536,75.167z"/>
	<path d="M93.864,66.415h2.165v2.365h-2.165V66.415z M93.882,69.911h2.128v10.363h-2.128V69.911z"/>
	<path d="M100.56,79.294l-0.427,1.074l-1.461-0.166V65.915h2.146v4.902c0.574-0.775,1.701-1.146,3.665-1.146
		c3.495,0,4.421,2.312,4.421,5.404c0,3.105-0.979,5.385-4.551,5.385C102.225,80.46,101.17,80.072,100.56,79.294z M106.723,75.167
		c0-2.057-0.52-3.424-2.739-3.424c-2.296,0-3.146,0.963-3.146,3.424c0,2.439,0.775,3.367,3.146,3.367
		C106.167,78.534,106.723,77.185,106.723,75.167z"/>
	<path d="M111.067,77.425v-11.51h2.128v11.252c0,0.904,0.149,1.201,1.11,1.201c0.037,0,0.333,0,0.391,0v1.889
		c-0.188,0.02-0.648,0.037-1.148,0.037C111.79,80.294,111.067,79.57,111.067,77.425z"/>
	<path d="M116.911,66.415h2.166v2.365h-2.166V66.415z M116.929,69.911h2.128v10.363h-2.128V69.911z"/>
	<path d="M121.221,75.075c0-3.518,1.463-5.404,5.201-5.404c3.736,0,5.197,1.889,5.197,5.404c0,3.515-1.461,5.4-5.197,5.4
		C122.684,80.478,121.221,78.591,121.221,75.075z M129.457,75.13c0-2.146-0.761-3.387-3.034-3.387c-2.295,0-3.036,1.24-3.036,3.387
		c0,2.146,0.741,3.404,3.036,3.404C128.698,78.534,129.457,77.277,129.457,75.13z"/>
	<path d="M132.914,69.911h1.851l0.388-2.775l1.687-0.352v3.127h2.646v1.961h-2.646v5.105c0,0.871,0.111,1.391,1.44,1.391h1.204
		v1.906c-0.297,0.02-1.258,0.02-1.607,0.02c-2.574,0-3.186-0.926-3.186-2.998v-5.424h-1.774L132.914,69.911L132.914,69.911z"/>
	<path d="M140.756,75.075c0-2.941,0.926-5.404,5.145-5.404c4.369,0,4.519,3.035,4.442,6.311h-7.496
		c0.131,1.627,0.777,2.646,3.092,2.646c1.647,0,2.461-0.428,3.256-1l1.148,1.498c-1.185,0.908-2.425,1.352-4.404,1.352
		C141.61,80.478,140.756,78.056,140.756,75.075z M142.847,74.113h5.462c-0.093-1.48-0.241-2.533-2.462-2.533
		C143.7,71.577,143.014,72.577,142.847,74.113z"/>
	<path d="M152.467,65.915h2.128v8.975l4.22-4.979h2.388l-3.609,4.293l3.961,6.07h-2.387l-2.998-4.498l-1.572,1.795v2.703h-2.128
		L152.467,65.915L152.467,65.915z"/>
</g>
<g>
	<path fill="#979800" d="M25.624,48.931H7.132v-9.62h15.173c6.992,0,6.693-6.324,6.693-6.324l0.001-10.346H21.87v9.513H7.152
		c-7.414,0-7.15,7.124-7.15,7.124l0.005,9.656c0,0-0.221,7.153,7.145,7.153h18.473c1.884,0,3.41-1.6,3.41-3.578
		C29.034,50.535,27.509,48.931,25.624,48.931"/>
	<path fill="#D6006E" d="M36.027,69.156c0,1.978,1.528,3.579,3.41,3.579h18.473c7.367,0,7.146-7.154,7.146-7.154l0.003-9.657
		c0,0,0.265-7.124-7.15-7.124H43.191v-9.514h-7.127v10.349c0,0-0.299,6.322,6.693,6.322h15.173v9.622H39.437
		C37.554,65.579,36.027,67.182,36.027,69.156"/>
	<path fill="#EC6A06" d="M42.071,13.614c-4.469,0-6.013,3.094-6.013,6.18v12.344h7.13V20.77H64.51v-7.157H42.071z"/>
	<path fill="#EC6A06" d="M36.051,7.021l25.642,0.001c1.855,0,3.359-1.594,3.359-3.562s-1.504-3.563-3.359-3.563L36.046-0.105
		L36.051,7.021z"/>
	
		<rect x="22.316" y="7.466" transform="matrix(0.7071 -0.7071 0.7071 0.7071 0.0286 20.9328)" fill="#FFD400" width="5.932" height="5.932"/>
	
		<rect x="51.019" y="32.792" transform="matrix(0.7071 -0.7071 0.7071 0.7071 -9.4729 48.6465)" fill="#D1BF00" width="5.932" height="5.932"/>
	
		<rect x="22.326" y="66.333" transform="matrix(0.7069 -0.7073 0.7073 0.7069 -41.6035 38.2016)" fill="#00A1D4" width="5.934" height="5.934"/>
	
		<rect x="22.326" y="79.329" transform="matrix(0.7071 -0.7071 0.7071 0.7071 -50.7858 41.9928)" fill="#BDE3F2" width="5.933" height="5.933"/>
</g>
</svg>
