<?xml version="1.0" encoding="UTF-8" standalone="no"?>
<!-- Generator: Adobe Illustrator 13.0.2, SVG Export Plug-In . SVG Version: 6.00 Build 14948)  -->
<!DOCTYPE svg PUBLIC "-//W3C//DTD SVG 1.1//EN" "http://www.w3.org/Graphics/SVG/1.1/DTD/svg11.dtd">
<svg id="Layer_1" xmlns="http://www.w3.org/2000/svg" height="720px" viewBox="-10.488 -8.234 591.98 720" width="592px" version="1.1" y="0px" x="0px"  enable-background="new -10.488 -8.234 591.98 720">
	<path d="m10.41 591.79c0 11.427 0 17.586 1.877 19.195 1.521 1.339 3.836 1.975 10.825 1.975 4.73 0 8.198-0.104 10.442-2.512 1.072-1.171 2.112-3.665 2.307-5.354 0.073-0.797 0.269-1.343 1-1.343 0.602 0 0.708 0.463 0.708 1.52 0 0.984-0.625 7.688-1.357 10.281-0.544 1.965-0.991 2.413-5.606 2.413-12.855 0-18.763-0.542-26.003-0.542-2.032 0-7.663 0.258-11.247 0.258-1.153 0-1.795-0.258-1.795-0.894 0-0.429 0.382-0.699 1.455-0.699 1.3 0 2.397-0.171 3.21-0.366 1.779-0.358 2.234-2.324 2.592-4.892 0.438-3.779 0.438-10.822 0.438-19.039v-15.716c0-13.57 0-16.08-0.188-18.933-0.186-3.038-0.876-4.47-3.842-5.095-0.732-0.179-1.788-0.268-2.942-0.268-0.983 0-1.503-0.181-1.503-0.806 0-0.617 0.608-0.804 1.966-0.804 4.193 0 9.824 0.275 12.222 0.275 2.145 0 8.646-0.275 12.156-0.275 1.251 0 1.861 0.186 1.861 0.804 0 0.625-0.521 0.806-1.61 0.806-0.974 0-2.396 0.089-3.478 0.268-2.414 0.446-3.129 1.981-3.315 5.095-0.171 2.853-0.171 5.363-0.171 18.933v15.714h-0.002z"/>
	<path d="m56.402 576.07c0-13.57 0-16.08-0.17-18.925-0.188-3.054-1.081-4.55-3.039-5.005-0.983-0.277-2.171-0.366-3.219-0.366-0.902 0-1.438-0.18-1.438-0.894 0-0.528 0.732-0.715 2.153-0.715 3.38 0 9.011 0.276 11.613 0.276 2.235 0 7.491-0.276 10.896-0.276 1.162 0 1.87 0.187 1.87 0.715 0 0.714-0.537 0.894-1.439 0.894-0.885 0-1.601 0.089-2.665 0.269-2.413 0.446-3.12 1.981-3.307 5.103-0.178 2.846-0.178 5.355-0.178 18.925v15.715c0 8.68 0 15.708 0.365 19.567 0.245 2.406 0.886 4.006 3.576 4.364 1.242 0.195 3.21 0.366 4.549 0.366 0.959 0 1.415 0.271 1.415 0.699 0 0.636-0.708 0.893-1.699 0.893-5.892 0-11.523-0.257-13.919-0.257-2.065 0-7.696 0.257-11.262 0.257-1.154 0-1.787-0.257-1.787-0.893 0-0.429 0.357-0.699 1.43-0.699 1.357 0 2.42-0.171 3.21-0.366 1.795-0.358 2.314-1.879 2.592-4.469 0.455-3.755 0.455-10.782 0.455-19.463v-15.71z"/>
	<path d="m103.46 576.07c0-13.57 0-16.08-0.179-18.933-0.178-3.038-0.885-4.47-3.843-5.095-0.699-0.18-2.243-0.269-3.486-0.269-0.991 0-1.52-0.18-1.52-0.805 0-0.617 0.651-0.805 1.975-0.805 4.721 0 10.335 0.276 12.139 0.276 4.381 0 7.883-0.276 10.906-0.276 16.155 0 19.031 8.67 19.031 13.408 0 7.321-4.218 11.676-9.117 15.61 7.32 2.509 16.26 8.864 16.26 19.299 0 9.547-7.436 19.478-23.858 19.478-2.145 0-10.254-0.543-12.943-0.543-2.081 0-7.696 0.258-11.263 0.258-1.154 0-1.78-0.258-1.78-0.893 0-0.429 0.358-0.699 1.413-0.699 1.366 0 2.446-0.171 3.243-0.367 1.779-0.357 2.218-2.323 2.568-4.891 0.455-3.779 0.455-10.822 0.455-19.04v-15.72zm11.86 1.88c0 0.7 0.25 0.886 0.606 0.968 0.814 0.187 2.147 0.259 4.181 0.259 2.923 0 4.868-0.339 6.376-1.662 2.31-1.891 3.642-5.079 3.642-9.429 0-5.917-3.455-13.74-11.084-13.74-1.243 0-2.051 0-2.921 0.195-0.622 0.169-0.8 0.517-0.8 1.493l-0.01 21.92zm10.64 6.78c-1.851-1.333-3.933-1.966-7.402-2.145-1.6-0.089-2.518-0.089-3.851-0.089-0.34 0-0.52 0.179-0.52 0.634v21.167c0 5.883 0.251 7.402 3.136 8.558 2.405 0.987 4.445 1.079 6.517 1.079 4.007 0 10.783-2.146 10.783-11.419-0.01-5.55-1.87-13.04-8.67-17.78"/>
	<path d="m171.54 576.07c0-13.57 0-16.08-0.195-18.925-0.179-3.054-0.886-4.478-3.835-5.103-0.724-0.18-2.243-0.269-3.494-0.269-0.967 0-1.512-0.18-1.512-0.805 0-0.617 0.635-0.805 1.967-0.805 4.745 0 10.375 0.276 12.229 0.276 3.03 0 9.833-0.276 12.595-0.276 5.631 0 11.604 0.561 16.438 3.858 2.496 1.682 6.062 6.225 6.062 12.23 0 6.605-2.77 12.658-11.79 19.987 7.954 10.012 14.121 17.967 19.388 23.51 5.014 5.144 8.662 5.795 9.986 6.056 1 0.178 1.812 0.275 2.518 0.275 0.7 0 1.09 0.262 1.09 0.699 0 0.729-0.641 0.894-1.73 0.894h-8.476c-4.998 0-7.216-0.439-9.565-1.69-3.827-2.047-7.215-6.233-12.22-13.124-3.568-4.916-7.672-10.993-8.833-12.327-0.457-0.536-1-0.617-1.602-0.617l-7.792-0.187c-0.439 0-0.699 0.187-0.699 0.714v1.262c0 8.297 0 15.34 0.448 19.119 0.252 2.567 0.796 4.533 3.477 4.891 1.332 0.196 3.299 0.367 4.379 0.367 0.699 0 1.059 0.262 1.059 0.699 0 0.634-0.619 0.892-1.772 0.892-5.185 0-11.791-0.258-13.14-0.258-1.675 0-7.304 0.258-10.895 0.258-1.154 0-1.781-0.258-1.781-0.892 0-0.438 0.357-0.699 1.421-0.699 1.349 0 2.414-0.171 3.226-0.367 1.797-0.357 2.236-2.323 2.592-4.891 0.456-3.779 0.456-10.822 0.456-19.04l-0.02-15.7zm10.53 7.06c0 0.975 0.17 1.331 0.797 1.599 1.878 0.644 4.534 0.91 6.793 0.91 3.566 0 4.729-0.372 6.329-1.535 2.667-1.968 5.274-6.071 5.274-13.383 0-12.668-8.386-16.364-13.668-16.364-2.227 0-3.843 0.094-4.729 0.379-0.626 0.172-0.797 0.539-0.797 1.236v27.15z"/>
	<path d="m247.44 594.38c-0.447 0-0.634 0.171-0.805 0.707l-4.819 12.774c-0.893 2.228-1.348 4.371-1.348 5.444 0 1.591 0.796 2.778 3.567 2.778h1.348c1.065 0 1.317 0.163 1.317 0.699 0 0.729-0.52 0.893-1.487 0.893-2.859 0-6.696-0.257-9.474-0.257-0.976 0-5.891 0.257-10.54 0.257-1.154 0-1.699-0.163-1.699-0.893 0-0.536 0.358-0.699 1.064-0.699 0.813 0 2.056-0.098 2.795-0.171 4.088-0.553 5.794-3.591 7.574-8.052l22.403-56.086c1.073-2.585 1.627-3.567 2.52-3.567 0.797 0 1.339 0.805 2.234 2.859 2.138 4.9 16.415 41.354 22.136 54.916 3.397 8.036 5.988 9.272 7.849 9.733 1.367 0.27 2.68 0.367 3.746 0.367 0.731 0 1.188 0.089 1.188 0.699 0 0.729-0.821 0.893-4.129 0.893-3.209 0-9.725 0-16.877-0.163-1.6-0.095-2.68-0.095-2.68-0.729 0-0.536 0.373-0.699 1.25-0.797 0.642-0.178 1.261-0.982 0.805-2.056l-7.133-18.942c-0.171-0.438-0.457-0.609-0.886-0.609l-19.92 0.01zm18.21-4.46c0.439 0 0.527-0.27 0.439-0.537l-8.053-22.045c-0.082-0.382-0.163-0.821-0.438-0.821-0.27 0-0.447 0.438-0.521 0.821l-8.215 21.957c-0.091 0.355 0 0.625 0.35 0.625h16.44z"/>
	<path d="m309.51 576.07c0-13.57 0-16.08-0.181-18.925-0.192-3.054-0.909-4.478-3.856-5.103-0.709-0.18-2.211-0.269-3.479-0.269-0.968 0-1.529-0.18-1.529-0.805 0-0.617 0.633-0.805 1.977-0.805 4.746 0 10.353 0.276 12.244 0.276 3.032 0 9.809-0.276 12.587-0.276 5.633 0 11.604 0.561 16.432 3.858 2.503 1.682 6.052 6.225 6.052 12.23 0 6.605-2.737 12.658-11.781 19.987 7.965 10.012 14.123 17.967 19.396 23.51 4.981 5.144 8.646 5.795 9.972 6.056 0.982 0.178 1.811 0.275 2.52 0.275 0.73 0 1.072 0.262 1.072 0.699 0 0.729-0.626 0.894-1.717 0.894h-8.467c-5.006 0-7.229-0.439-9.572-1.69-3.803-2.047-7.224-6.233-12.203-13.124-3.591-4.916-7.697-10.993-8.864-12.327-0.416-0.536-0.96-0.617-1.588-0.617l-7.773-0.187c-0.449 0-0.726 0.187-0.726 0.714v1.262c0 8.297 0 15.34 0.449 19.119 0.276 2.567 0.812 4.533 3.484 4.891 1.334 0.196 3.314 0.367 4.381 0.367 0.706 0 1.072 0.262 1.072 0.699 0 0.634-0.634 0.892-1.789 0.892-5.156 0-11.798-0.258-13.122-0.258-1.706 0-7.312 0.258-10.903 0.258-1.153 0-1.765-0.258-1.765-0.892 0-0.438 0.35-0.699 1.43-0.699 1.333 0 2.397-0.171 3.21-0.367 1.763-0.357 2.21-2.323 2.599-4.891 0.439-3.779 0.439-10.822 0.439-19.04v-15.7h0.01zm10.51 7.06c0 0.975 0.182 1.331 0.812 1.599 1.889 0.644 4.552 0.91 6.785 0.91 3.578 0 4.738-0.372 6.348-1.535 2.666-1.968 5.266-6.071 5.266-13.383 0-12.668-8.394-16.364-13.651-16.364-2.243 0-3.859 0.094-4.747 0.379-0.631 0.172-0.812 0.539-0.812 1.236v27.15z"/>
	<path d="m390.05 594.55c0-4.818-0.909-6.769-2.063-9.386-0.627-1.412-12.598-21.061-15.724-25.711-2.218-3.299-4.479-5.532-6.175-6.509-1.132-0.632-2.683-1.169-3.739-1.169-0.708 0-1.35-0.18-1.35-0.805 0-0.528 0.642-0.805 1.716-0.805 1.616 0 8.304 0.276 11.254 0.276 1.868 0 5.524-0.276 9.557-0.276 0.891 0 1.314 0.276 1.314 0.805 0 0.536-0.624 0.625-1.942 0.984-0.805 0.186-1.249 0.894-1.249 1.608 0 0.716 0.446 1.803 1.08 3.038 1.235 2.697 13.742 24.208 15.162 26.703 0.902-2.153 12.165-21.793 13.424-24.549 0.87-1.974 1.22-3.484 1.22-4.663 0-0.896-0.35-1.87-1.877-2.229-0.798-0.187-1.603-0.357-1.603-0.893 0-0.617 0.439-0.805 1.512-0.805 2.948 0 5.836 0.277 8.404 0.277 1.981 0 7.855-0.277 9.562-0.277 0.976 0 1.599 0.187 1.599 0.715 0 0.625-0.719 0.894-1.703 0.894-0.88 0-2.577 0.366-3.926 1.074-1.86 0.901-2.87 1.975-4.811 4.38-2.934 3.566-15.439 24.547-17.065 28.406-1.35 3.21-1.35 5.988-1.35 8.915v7.321c0 1.438 0 5.176 0.269 8.955 0.179 2.567 1 4.533 3.665 4.895 1.253 0.192 3.219 0.363 4.47 0.363 0.975 0 1.432 0.262 1.432 0.699 0 0.636-0.726 0.893-1.878 0.893-5.6 0-11.252-0.257-13.659-0.257-2.238 0-7.851 0.257-11.159 0.257-1.242 0-1.957-0.163-1.957-0.893 0-0.438 0.437-0.699 1.42-0.699 1.229 0 2.332-0.171 3.122-0.363 1.778-0.361 2.606-2.327 2.761-4.895 0.286-3.779 0.286-7.518 0.286-8.955v-7.322h0.02z"/>
	<path d="m450.67 583.94c0-15.276 10.108-35.014 36.882-35.014 22.242 0 36.07 12.936 36.07 33.396 0 20.462-14.283 36.607-36.954 36.607-25.64-0.01-36-19.21-36-35m60.45 1.7c0-20.021-11.513-32.438-26.148-32.438-10.271 0-21.964 5.715-21.964 27.962 0 18.567 10.263 33.3 27.398 33.3 6.24 0 20.71-3.02 20.71-28.82"/>
	<path d="m557.56 591.79c0 8.583 0 15.261 0.463 19.04 0.258 2.567 0.779 4.533 3.453 4.891 1.27 0.196 3.233 0.367 4.471 0.367 1.17 0 1.543 0.271 1.543 0.699 0 0.635-0.642 0.893-1.981 0.893-5.632 0-11.246-0.258-13.571-0.258-2.332 0-7.966 0.258-11.345 0.258-1.25 0-1.859-0.163-1.859-0.893 0-0.429 0.355-0.699 1.324-0.699 1.333 0 2.413-0.171 3.216-0.367 1.782-0.357 2.236-2.323 2.589-4.891 0.444-3.779 0.444-10.458 0.444-19.04v-15.715c0-13.57 0-16.08-0.187-18.933-0.162-3.038-0.876-4.47-3.828-5.095-0.731-0.18-2.234-0.269-3.471-0.269-0.901 0-1.543-0.18-1.543-0.708 0-0.714 0.733-0.9 2.066-0.9 4.633 0 10.263 0.276 12.854 0.276 3.398 0 21.532 0 23.583-0.089 1.688-0.09 2.76-0.09 3.655-0.374 0.538-0.163 0.992-0.521 1.446-0.521 0.366 0 0.61 0.357 0.61 0.806 0 0.618-0.456 1.691-0.708 4.015-0.098 0.895-0.284 6.169-0.456 7.233-0.098 0.714-0.251 1.259-0.893 1.259-0.609 0-0.812-0.462-0.894-1.439 0-0.713 0-2.145-0.545-3.389-0.593-1.259-2.501-2.574-5.872-2.671l-13.759-0.285c-0.537 0-0.806 0.285-0.806 1.26v22.322c0 0.536 0.098 0.797 0.636 0.797l11.423-0.073c1.511 0 2.779 0 3.998-0.105 1.706-0.082 2.976-0.432 3.851-1.594 0.471-0.536 0.626-0.886 1.153-0.886 0.381 0 0.561 0.251 0.561 0.79 0 0.534-0.462 2.77-0.729 5.524-0.182 1.812-0.36 5.907-0.36 6.54 0 0.798 0 1.699-0.893 1.699-0.544 0-0.69-0.624-0.69-1.268 0-0.609-0.187-1.689-0.546-2.754-0.469-1.269-1.785-2.86-4.565-3.218-2.227-0.268-11.71-0.268-13.201-0.268-0.439 0-0.636 0.185-0.636 0.794v7.236h0.02z"/>
	<path d="m0.586 702.02c-8.743-7.669-11.075-17.673-11.075-26.337 0-6.076 1.876-16.616 10.457-24.472 6.419-5.887 14.911-9.475 28.213-9.475 5.542 0 8.841 0.356 12.953 0.901 3.397 0.429 6.24 1.235 8.93 1.51 0.958 0.106 1.348 0.544 1.348 1.08 0 0.716-0.268 1.788-0.455 4.918-0.171 2.948-0.082 7.85-0.269 9.638-0.09 1.339-0.268 2.063-1.065 2.063-0.723 0-0.901-0.724-0.901-1.976-0.09-2.771-1.26-5.891-3.479-8.233-2.957-3.095-9.914-5.516-18.128-5.516-7.792 0-12.873 1.974-16.797 5.516-6.491 5.999-8.215 14.498-8.215 23.161 0 21.24 16.171 31.788 28.132 31.788 7.955 0 12.773-0.9 16.341-5.007 1.511-1.715 2.69-4.289 3.046-5.905 0.269-1.415 0.439-1.788 1.162-1.788 0.626 0 0.78 0.642 0.78 1.331 0 1.089-1.064 8.858-1.942 11.889-0.438 1.529-0.812 1.976-2.34 2.576-3.567 1.446-10.343 2.082-16.065 2.082-12.234-0.01-22.497-2.69-30.631-9.75"/>
	<path d="m67.658 676.76c0-15.298 10.084-35.036 36.875-35.036 22.232 0 36.079 12.96 36.079 33.445 0 20.412-14.292 36.593-36.965 36.593-25.638 0.01-35.982-19.21-35.982-34.99m60.442 1.68c0-20.004-11.53-32.422-26.158-32.422-10.27 0-21.972 5.714-21.972 27.968 0 18.561 10.271 33.326 27.417 33.326 6.28-0.01 20.72-3.06 20.72-28.88"/>
	<path d="m171.45 698.36c0.188 6.955 1.342 9.279 3.129 9.922 1.503 0.536 3.219 0.617 4.656 0.617 0.958 0 1.503 0.18 1.503 0.709 0 0.714-0.829 0.884-2.047 0.884-5.811 0-9.386-0.25-11.076-0.25-0.829 0-5.022 0.25-9.653 0.25-1.17 0-1.975-0.064-1.975-0.884 0-0.529 0.536-0.709 1.43-0.709 1.153 0 2.754-0.081 4.015-0.438 2.349-0.715 2.673-3.314 2.77-11.083l0.821-52.866c0-1.789 0.269-3.049 1.139-3.049 0.991 0 1.812 1.161 3.322 2.787 1.065 1.146 14.653 15.707 27.677 28.643 6.087 6.077 18.128 18.949 19.64 20.374h0.455l-0.893-40.095c-0.106-5.436-0.885-7.149-3.023-8.043-1.349-0.512-3.501-0.512-4.738-0.512-1.081 0-1.437-0.285-1.437-0.831 0-0.723 0.975-0.788 2.315-0.788 4.647 0 8.947 0.278 10.825 0.278 0.982 0 4.372-0.278 8.734-0.278 1.154 0 2.056 0.064 2.056 0.788 0 0.545-0.527 0.831-1.608 0.831-0.886 0-1.608 0-2.674 0.25-2.495 0.709-3.209 2.591-3.298 7.584l-0.992 56.367c0 1.959-0.341 2.756-1.146 2.756-0.999 0-2.08-0.991-3.047-1.967-5.615-5.356-17.064-17.065-26.368-26.254-9.695-9.637-19.617-20.818-21.233-22.509h-0.269l1.02 37.52z"/>
	<path d="m311.48 704.52c0 2.413-0.087 2.583-1.175 3.226-5.795 3.03-14.553 4.016-21.502 4.016-21.891 0-41.262-10.364-41.262-35.001 0-14.299 7.41-24.309 15.544-29.219 8.573-5.174 16.503-5.817 24.002-5.817 6.169 0 14.042 1.089 15.831 1.446 1.844 0.373 4.988 0.895 7.043 0.976 1.08 0.105 1.246 0.472 1.246 1.079 0 0.984-0.609 3.479-0.609 14.644 0 1.432-0.293 1.869-0.986 1.869-0.633 0-0.827-0.438-0.893-1.146-0.277-2.071-0.74-4.915-3.039-7.419-2.673-2.845-9.848-6.963-19.916-6.963-4.907 0-11.44 0.357-17.697 5.518-4.981 4.208-8.215 10.912-8.215 21.883 0 19.202 12.261 33.593 31.098 33.593 2.308 0 5.429 0 7.589-0.976 1.34-0.627 1.675-1.807 1.675-3.316v-8.385c0-4.47 0-7.865-0.082-10.541-0.097-3.029-0.878-4.469-3.844-5.103-0.708-0.172-2.228-0.267-3.479-0.267-0.805 0-1.356-0.182-1.356-0.709 0-0.708 0.651-0.901 1.894-0.901 4.655 0 10.287 0.268 12.95 0.268 2.781 0 7.51-0.268 10.444-0.268 1.169 0 1.797 0.194 1.797 0.901 0 0.527-0.537 0.709-1.171 0.709-0.71 0-1.334 0.095-2.391 0.267-2.428 0.464-3.33 1.991-3.42 5.103-0.075 2.675-0.075 6.233-0.075 10.701v9.834h0.02z"/>
	<path d="m343.1 668.91c0-13.602 0-16.097-0.195-18.957-0.181-3.023-0.875-4.444-3.836-5.071-0.706-0.187-2.235-0.258-3.484-0.258-0.97 0-1.511-0.204-1.511-0.831 0-0.616 0.617-0.788 1.956-0.788 4.729 0 10.36 0.278 12.23 0.278 3.054 0 9.833-0.278 12.595-0.278 5.623 0 11.611 0.545 16.43 3.846 2.503 1.698 6.069 6.247 6.069 12.221 0 6.605-2.755 12.692-11.798 20.015 7.979 9.984 14.114 17.926 19.396 23.466 5.006 5.201 8.672 5.81 10.018 6.088 0.954 0.186 1.78 0.267 2.489 0.267 0.715 0 1.047 0.261 1.047 0.709 0 0.714-0.593 0.884-1.673 0.884h-8.491c-4.998 0-7.234-0.43-9.549-1.674-3.865-2.069-7.24-6.273-12.247-13.146-3.557-4.926-7.674-10.963-8.84-12.31-0.422-0.54-0.998-0.635-1.608-0.635l-7.753-0.162c-0.461 0-0.714 0.162-0.714 0.69v1.243c0 8.312 0 15.364 0.438 19.134 0.276 2.594 0.822 4.544 3.479 4.918 1.339 0.162 3.308 0.349 4.378 0.349 0.724 0 1.056 0.261 1.056 0.708 0 0.634-0.609 0.885-1.769 0.885-5.187 0-11.792-0.25-13.131-0.25-1.693 0-7.324 0.25-10.892 0.25-1.16 0-1.771-0.25-1.771-0.885 0-0.447 0.351-0.708 1.414-0.708 1.348 0 2.422-0.187 3.217-0.349 1.786-0.374 2.228-2.324 2.603-4.918 0.445-3.77 0.445-10.821 0.445-19.029v-15.7h-0.02zm10.53 7.04c0 0.976 0.169 1.324 0.829 1.602 1.821 0.626 4.527 0.884 6.754 0.884 3.59 0 4.728-0.365 6.346-1.51 2.672-1.959 5.255-6.078 5.255-13.399 0-12.671-8.401-16.326-13.641-16.326-2.251 0-3.854 0.09-4.714 0.342-0.66 0.195-0.829 0.551-0.829 1.268v27.15z"/>
	<path d="m418.98 668.91c0-13.602 0-16.097-0.173-18.957-0.161-3.032-0.884-4.444-3.836-5.079-0.706-0.179-2.236-0.25-3.485-0.25-0.975 0-1.528-0.204-1.528-0.831 0-0.616 0.642-0.788 1.991-0.788 4.72 0 10.347 0.278 12.862 0.278 2.846 0 20.599 0 22.322-0.106 1.691-0.172 3.111-0.357 3.828-0.536 0.43-0.09 0.981-0.342 1.421-0.342 0.457 0 0.552 0.342 0.552 0.771 0 0.643-0.454 1.708-0.73 5.81-0.079 0.917-0.261 4.836-0.431 5.899-0.09 0.473-0.284 0.983-0.902 0.983-0.626 0-0.827-0.456-0.827-1.251 0-0.617-0.063-2.146-0.529-3.209-0.608-1.616-1.513-2.683-5.981-3.203-1.495-0.178-10.886-0.356-12.668-0.356-0.446 0-0.623 0.261-0.623 0.877v22.583c0 0.626 0.095 1.016 0.623 1.016 1.982 0 12.248 0 14.28-0.195 2.145-0.195 3.493-0.438 4.289-1.34 0.609-0.7 0.99-1.163 1.437-1.163 0.36 0 0.618 0.188 0.618 0.733 0 0.512-0.446 1.965-0.706 6.515-0.18 1.78-0.358 5.339-0.358 5.958 0 0.721 0 1.723-0.806 1.723-0.626 0-0.796-0.384-0.796-0.805-0.1-0.918-0.1-2.065-0.356-3.236-0.465-1.785-1.717-3.128-5.006-3.477-1.708-0.163-10.542-0.261-12.692-0.261-0.432 0-0.528 0.342-0.528 0.889v7.051c0 3.039-0.09 11.246 0 13.854 0.177 6.161 1.608 7.492 10.742 7.492 2.297 0 6.027 0 8.382-1.081 2.317-1.056 3.382-2.94 4.01-6.612 0.187-0.968 0.372-1.327 0.99-1.327 0.697 0 0.697 0.708 0.697 1.603 0 2.063-0.697 8.141-1.151 9.929-0.626 2.317-1.43 2.317-4.825 2.317-13.482 0-19.471-0.537-24.73-0.537-2.062 0-7.686 0.25-11.262 0.25-1.146 0-1.779-0.25-1.779-0.884 0-0.447 0.343-0.708 1.42-0.708 1.342 0 2.415-0.188 3.229-0.349 1.754-0.368 2.219-2.325 2.591-4.91 0.425-3.777 0.425-10.83 0.425-19.038v-15.698h0.02z"/>
	<path d="m478.99 709.42c-1.415-0.601-1.69-1.064-1.69-3.028 0-4.918 0.364-10.264 0.446-11.704 0.105-1.329 0.367-2.309 1.098-2.309 0.798 0 0.887 0.781 0.887 1.506 0 1.178 0.323 3.046 0.788 4.574 1.958 6.599 7.226 9.021 12.782 9.021 8.009 0 11.95-5.463 11.95-10.191 0-4.378-1.314-8.582-8.742-14.304l-4.12-3.192c-9.83-7.693-13.204-13.936-13.204-21.175 0-9.801 8.198-16.894 20.625-16.894 5.793 0 9.558 0.91 11.879 1.55 0.805 0.156 1.259 0.432 1.259 1.058 0 1.171-0.372 3.762-0.372 10.711 0 1.982-0.27 2.671-0.976 2.671-0.632 0-0.902-0.519-0.902-1.606 0-0.806-0.427-3.561-2.325-5.891-1.34-1.675-3.925-4.357-9.718-4.357-6.605 0-10.646 3.812-10.646 9.184 0 4.121 2.057 7.223 9.485 12.87l2.485 1.878c10.718 8.288 14.657 14.269 14.657 22.752 0 5.176-1.973 11.346-8.401 15.552-4.469 2.852-9.459 3.668-14.187 3.668-5.2 0-9.21-0.63-13.06-2.34"/>
	<path d="m539.46 709.42c-1.456-0.601-1.701-1.064-1.701-3.028 0-4.918 0.327-10.264 0.423-11.704 0.106-1.329 0.375-2.309 1.089-2.309 0.813 0 0.887 0.781 0.887 1.506 0 1.178 0.357 3.046 0.804 4.574 1.96 6.599 7.25 9.021 12.766 9.021 8.054 0 11.987-5.463 11.987-10.191 0-4.378-1.353-8.582-8.776-14.304l-4.095-3.192c-9.818-7.693-13.206-13.936-13.206-21.175 0-9.801 8.183-16.894 20.631-16.894 5.806 0 9.54 0.91 11.873 1.55 0.799 0.156 1.251 0.432 1.251 1.058 0 1.171-0.364 3.762-0.364 10.711 0 1.982-0.277 2.671-0.978 2.671-0.632 0-0.892-0.519-0.892-1.606 0-0.806-0.459-3.561-2.326-5.891-1.338-1.675-3.949-4.357-9.726-4.357-6.615 0-10.637 3.812-10.637 9.184 0 4.121 2.04 7.223 9.467 12.87l2.5 1.878c10.722 8.288 14.645 14.269 14.645 22.752 0 5.176-1.959 11.346-8.401 15.552-4.471 2.852-9.453 3.668-14.188 3.668-5.16 0-9.17-0.63-13.01-2.34"/>
	<path d="m485.66 155.95c-27.117 0-55.451-9-55.451-9s-40.378-12.515-69.892-12.515c-44.425 0-74.814 36.644-74.814 36.644v-29.73s29.131-34.444 74.711-34.444c16.554 0 37.719 0.901 72.823 11.503 35.112 10.618 53.396 9.304 53.396 9.304 39.789 0 78.591-13.637 89.225-17.691v-40.765c-11.344 3.576-54.151 16.353-89.997 16.353-27.117 0-55.451-9-55.451-9s-40.38-12.508-69.89-12.508c-44.425 0-74.814 36.635-74.814 36.635v-29.733s29.131-34.436 74.711-34.436c16.554 0 37.719 0.884 72.823 11.502 35.112 10.611 53.396 9.304 53.396 9.304 39.789 0 78.591-13.645 89.225-17.7v-45.03s-48.496 19.938-90.676 19.938c-42.186 0-67.906-20.153-115.14-20.153-47.222 0-84.335 31.903-84.335 31.903s-37.13-31.903-84.35-31.903c-47.236 0-72.957 20.153-115.12 20.153s-90.69-19.938-90.69-19.938v467.58s43.852 18.312 87.719 18.312c35.417 0 81.292-25.786 113.27-23.715 28.495 1.864 45.294 14.904 58.07 31.266 2.844 5.122 8.628 5.394 8.628 5.394h44.975s5.702-0.271 8.618-5.394c12.778-16.361 29.57-29.401 58.054-31.266 31.983-2.071 72.721 23.252 113.29 23.715 45.095 0.518 87.696-18.312 87.696-18.312v-41.279c-11.344 3.593-54.151 16.346-89.997 16.346-27.116 0-55.451-8.986-55.451-8.986s-40.378-12.523-69.892-12.523c-44.425 0-74.814 36.645-74.814 36.645v-29.729s29.131-34.454 74.711-34.454c16.555 0 37.719 0.902 72.823 11.513 35.112 10.618 53.396 9.304 53.396 9.304 39.789 0 78.591-13.645 89.225-17.7v-40.78c-11.344 3.601-54.151 16.371-89.997 16.371-27.116 0-55.451-8.995-55.451-8.995s-40.378-12.522-69.892-12.522c-44.425 0-74.814 36.634-74.814 36.634v-29.728s29.131-34.428 74.711-34.428c16.555 0 37.719 0.892 72.823 11.51 35.112 10.596 53.396 9.28 53.396 9.28 39.789 0 78.591-13.63 89.225-17.685v-40.769c-11.344 3.593-54.151 16.354-89.997 16.354-27.116 0-55.451-8.977-55.451-8.977s-40.378-12.531-69.892-12.531c-44.425 0-74.814 36.651-74.814 36.651v-29.744s29.131-34.428 74.711-34.428c16.555 0 37.719 0.9 72.823 11.51 35.112 10.602 53.396 9.289 53.396 9.289 39.789 0 78.591-13.653 89.225-17.692v-40.762c-11.344 3.585-54.151 16.363-89.997 16.363-27.116 0-55.451-9.01-55.451-9.01s-40.378-12.515-69.892-12.515c-44.425 0-74.814 36.651-74.814 36.651v-29.744s29.131-34.436 74.711-34.436c16.555 0 37.719 0.9 72.823 11.51 35.112 10.611 53.396 9.312 53.396 9.312 39.789 0 78.591-13.661 89.225-17.701v-40.767c-11.35 3.59-54.15 16.37-90 16.37"/>
	<path stroke="#fff" stroke-width="3.8615" d="m485.66 155.95c-27.117 0-55.451-9-55.451-9s-40.378-12.515-69.892-12.515c-44.425 0-74.814 36.644-74.814 36.644v-29.73s29.131-34.444 74.711-34.444c16.554 0 37.719 0.901 72.823 11.503 35.112 10.618 53.396 9.304 53.396 9.304 39.789 0 78.591-13.637 89.225-17.691v-40.765c-11.344 3.576-54.151 16.353-89.997 16.353-27.117 0-55.451-9-55.451-9s-40.38-12.508-69.89-12.508c-44.425 0-74.814 36.635-74.814 36.635v-29.733s29.131-34.436 74.711-34.436c16.554 0 37.719 0.884 72.823 11.502 35.112 10.611 53.396 9.304 53.396 9.304 39.789 0 78.591-13.645 89.225-17.7v-45.03s-48.496 19.938-90.676 19.938c-42.186 0-67.906-20.153-115.14-20.153-47.222 0-84.335 31.903-84.335 31.903s-37.13-31.903-84.35-31.903c-47.236 0-72.957 20.153-115.12 20.153s-90.69-19.938-90.69-19.938v467.58s43.852 18.312 87.719 18.312c35.417 0 81.292-25.786 113.27-23.715 28.495 1.864 45.294 14.904 58.07 31.266 2.844 5.122 8.628 5.394 8.628 5.394h44.975s5.702-0.271 8.618-5.394c12.778-16.361 29.57-29.401 58.054-31.266 31.983-2.071 72.721 23.252 113.29 23.715 45.095 0.518 87.696-18.312 87.696-18.312v-41.279c-11.344 3.593-54.151 16.346-89.997 16.346-27.116 0-55.451-8.986-55.451-8.986s-40.378-12.523-69.892-12.523c-44.425 0-74.814 36.645-74.814 36.645v-29.729s29.131-34.454 74.711-34.454c16.555 0 37.719 0.902 72.823 11.513 35.112 10.618 53.396 9.304 53.396 9.304 39.789 0 78.591-13.645 89.225-17.7v-40.78c-11.344 3.601-54.151 16.371-89.997 16.371-27.116 0-55.451-8.995-55.451-8.995s-40.378-12.522-69.892-12.522c-44.425 0-74.814 36.634-74.814 36.634v-29.728s29.131-34.428 74.711-34.428c16.555 0 37.719 0.892 72.823 11.51 35.112 10.596 53.396 9.28 53.396 9.28 39.789 0 78.591-13.63 89.225-17.685v-40.769c-11.344 3.593-54.151 16.354-89.997 16.354-27.116 0-55.451-8.977-55.451-8.977s-40.378-12.531-69.892-12.531c-44.425 0-74.814 36.651-74.814 36.651v-29.744s29.131-34.428 74.711-34.428c16.555 0 37.719 0.9 72.823 11.51 35.112 10.602 53.396 9.289 53.396 9.289 39.789 0 78.591-13.653 89.225-17.692v-40.762c-11.344 3.585-54.151 16.363-89.997 16.363-27.116 0-55.451-9.01-55.451-9.01s-40.378-12.515-69.892-12.515c-44.425 0-74.814 36.651-74.814 36.651v-29.744s29.131-34.436 74.711-34.436c16.555 0 37.719 0.9 72.823 11.51 35.112 10.611 53.396 9.312 53.396 9.312 39.789 0 78.591-13.661 89.225-17.701v-40.767c-11.35 3.59-54.15 16.37-90 16.37z" fill="#006EAB"/>
</svg>