<?xml version="1.0" encoding="UTF-8" standalone="no"?>
<!-- Created with Inkscape (http://www.inkscape.org/) -->

<svg
        xmlns:dc="http://purl.org/dc/elements/1.1/"
        xmlns:cc="http://creativecommons.org/ns#"
        xmlns:rdf="http://www.w3.org/1999/02/22-rdf-syntax-ns#"
        xmlns="http://www.w3.org/2000/svg"
        version="1.1"
        width="240"
        height="210"
        id="svg3517">
  <defs
     id="defs3519" />
  <metadata
     id="metadata3522">
    <rdf:RDF>
      <cc:Work
         rdf:about="">
        <dc:format>image/svg+xml</dc:format>
        <dc:type
           rdf:resource="http://purl.org/dc/dcmitype/StillImage" />
        <dc:title></dc:title>
      </cc:Work>
    </rdf:RDF>
  </metadata>
  <g
     transform="matrix(1.25,0,0,-1.25,30.685,209.99999)"
     id="g3433" />
  <g
     transform="matrix(1.25,0,0,-1.25,95.76375,209.99999)"
     id="g3437" />
  <g
     transform="matrix(1.25,0,0,-1.25,126.97625,150.15624)"
     id="g3441" />
  <g
     transform="translate(9.100625,-4.8826149)"
     id="g3040">
    <g
       transform="matrix(1.25,0,0,-1.25,197.92,209.99999)"
       id="g3445">
      <path
         d="m 0,0 c -3.407,0 -6.585,0.627 -9.522,1.883 -2.934,1.26 -5.472,2.972 -7.6,5.152 -2.129,2.171 -3.797,4.741 -5.006,7.701 -1.212,2.959 -1.817,6.12 -1.817,9.489 l 0,0.133 c 0,3.365 0.595,6.51 1.782,9.45 1.183,2.936 2.852,5.516 5.006,7.739 2.157,2.217 4.719,3.967 7.705,5.243 2.98,1.284 6.243,1.92 9.788,1.92 2.15,0 4.114,-0.179 5.885,-0.539 1.772,-0.362 3.397,-0.868 4.882,-1.517 1.473,-0.658 2.846,-1.429 4.099,-2.327 1.26,-0.904 2.45,-1.889 3.571,-2.968 l -5.314,-6.124 c -1.886,1.751 -3.883,3.161 -5.988,4.237 -2.11,1.074 -4.51,1.616 -7.201,1.616 -2.242,0 -4.32,-0.441 -6.225,-1.31 -1.907,-0.875 -3.545,-2.063 -4.908,-3.561 -1.37,-1.501 -2.447,-3.259 -3.231,-5.277 -0.787,-2.012 -1.177,-4.168 -1.177,-6.448 l 0,-0.134 c 0,-2.287 0.39,-4.45 1.177,-6.486 0.784,-2.04 1.861,-3.824 3.231,-5.34 C -9.5,11.004 -7.862,9.805 -5.955,8.933 -4.05,8.06 -1.972,7.624 0.27,7.624 c 1.432,0 2.755,0.144 3.966,0.436 1.213,0.291 2.355,0.693 3.43,1.21 1.079,0.519 2.121,1.159 3.132,1.918 1.012,0.765 2.006,1.617 2.994,2.56 L 19.103,8.36 C 17.895,7.107 16.626,5.958 15.307,4.928 13.981,3.892 12.558,3.001 11.031,2.261 9.511,1.522 7.839,0.958 6.02,0.571 4.202,0.196 2.197,0 0,0 m -56.755,47.875 8.28,0 0,-39.55 24.76,0 0,-7.534 -33.04,0 0,47.084 M -81.725,0 c -3.406,0 -6.58,0.627 -9.515,1.883 -2.943,1.26 -5.475,2.972 -7.604,5.152 -2.131,2.171 -3.796,4.741 -5.008,7.701 -1.209,2.959 -1.817,6.12 -1.817,9.489 l 0,0.133 c 0,3.365 0.595,6.51 1.782,9.45 1.187,2.936 2.859,5.516 5.01,7.739 2.15,2.217 4.718,3.967 7.7,5.243 2.982,1.284 6.249,1.92 9.795,1.92 2.147,0 4.109,-0.179 5.881,-0.539 1.773,-0.362 3.398,-0.868 4.878,-1.517 1.482,-0.658 2.848,-1.429 4.108,-2.327 1.256,-0.904 2.443,-1.889 3.567,-2.968 l -5.318,-6.124 c -1.885,1.751 -3.878,3.161 -5.988,4.237 -2.109,1.074 -4.505,1.616 -7.197,1.616 -2.245,0 -4.317,-0.441 -6.225,-1.31 -1.904,-0.875 -3.545,-2.063 -4.914,-3.561 -1.363,-1.501 -2.44,-3.259 -3.228,-5.277 -0.787,-2.012 -1.177,-4.168 -1.177,-6.448 l 0,-0.134 c 0,-2.287 0.39,-4.45 1.177,-6.486 0.788,-2.04 1.865,-3.824 3.228,-5.34 1.369,-1.528 3.01,-2.727 4.914,-3.599 1.908,-0.873 3.98,-1.309 6.225,-1.309 1.432,0 2.758,0.144 3.97,0.436 1.209,0.291 2.352,0.693 3.425,1.21 1.083,0.519 2.12,1.159 3.133,1.918 1.008,0.765 2.006,1.617 2.994,2.56 L -62.614,8.36 C -63.826,7.107 -65.095,5.958 -66.417,4.928 -67.743,3.892 -69.166,3.001 -70.69,2.261 -72.217,1.522 -73.879,0.958 -75.702,0.571 -77.519,0.196 -79.524,0 -81.725,0 m -52.063,0 c -3.63,0 -6.949,0.643 -9.952,1.918 -3.007,1.276 -5.583,3.016 -7.739,5.217 -2.147,2.191 -3.834,4.76 -5.044,7.701 -1.206,2.937 -1.813,6.068 -1.813,9.389 l 0,0.133 c 0,3.315 0.607,6.444 1.813,9.381 1.21,2.938 2.919,5.516 5.116,7.735 2.195,2.227 4.795,3.984 7.799,5.285 3.007,1.296 6.325,1.951 9.959,1.951 3.627,0 6.945,-0.636 9.955,-1.92 2.997,-1.276 5.579,-3.017 7.729,-5.211 2.154,-2.201 3.835,-4.767 5.047,-7.704 1.213,-2.938 1.82,-6.071 1.82,-9.383 l 0,-0.134 c 0,-3.325 -0.607,-6.452 -1.82,-9.387 -1.212,-2.936 -2.915,-5.515 -5.116,-7.735 -2.195,-2.22 -4.792,-3.986 -7.802,-5.283 C -126.839,0.653 -130.152,0 -133.788,0 z m 0.139,7.624 c 2.332,0 4.47,0.436 6.419,1.309 1.956,0.872 3.624,2.059 5.012,3.565 1.395,1.498 2.478,3.254 3.265,5.275 0.785,2.016 1.178,4.163 1.178,6.452 l 0,0.133 c 0,2.284 -0.393,4.441 -1.178,6.482 -0.787,2.04 -1.886,3.806 -3.296,5.307 -1.414,1.503 -3.104,2.699 -5.076,3.6 -1.98,0.89 -4.13,1.341 -6.463,1.341 -2.333,0 -4.474,-0.441 -6.423,-1.31 -1.952,-0.875 -3.621,-2.063 -5.009,-3.561 -1.392,-1.501 -2.481,-3.259 -3.268,-5.277 -0.784,-2.012 -1.174,-4.168 -1.174,-6.448 l 0,-0.134 c 0,-2.287 0.39,-4.45 1.174,-6.486 0.787,-2.04 1.886,-3.81 3.3,-5.309 1.41,-1.502 3.104,-2.701 5.075,-3.596 1.974,-0.897 4.127,-1.343 6.464,-1.343"
         id="path3447"
         style="fill:#231f20;fill-opacity:1;fill-rule:nonzero;stroke:none" />
    </g>
    <g
       transform="matrix(1.25,0,0,-1.25,150.55,50.33499)"
       id="g3449">
      <path
         d="m 0,0 c -3.489,21.12 -23.449,35.42 -44.572,31.932 -21.127,-3.486 -35.426,-23.444 -31.937,-44.567 2.603,-15.782 14.41,-27.75 29.025,-31.336 0.044,1.143 0.192,2.292 0.447,3.433 -10.472,3.677 -18.743,13.008 -20.72,25.016 -2.862,17.311 8.409,33.588 25.175,36.356 14.936,2.468 29.183,-6.628 34.138,-20.881 3.425,-1.224 6.455,-3.133 8.955,-5.557 C 0.476,-3.75 0.309,-1.879 0,0"
         id="path3451"
         style="fill:#2178b4;fill-opacity:1;fill-rule:nonzero;stroke:none" />
    </g>
    <g
       transform="matrix(1.25,0,0,-1.25,140.40375,41.67624)"
       id="g3453">
      <path
         d="m 0,0 c -16.062,4.408 -32.655,-5.04 -37.06,-21.098 -1.819,-6.633 -1.274,-13.355 1.121,-19.27 0.879,1.218 1.864,2.307 2.941,3.258 -0.724,3.75 -0.636,7.733 0.45,11.694 3.668,13.368 17.137,21.333 30.086,17.779 12.956,-3.555 20.478,-17.282 16.81,-30.651 -2.497,-9.095 -9.536,-15.682 -17.856,-17.845 -0.303,-0.991 -0.697,-1.964 -1.169,-2.922 11.921,1.32 22.41,9.726 25.779,21.998 C 25.506,-21.003 16.058,-4.404 0,0"
         id="path3455"
         style="fill:#3f993c;fill-opacity:1;fill-rule:nonzero;stroke:none" />
    </g>
    <g
       transform="matrix(1.25,0,0,-1.25,129.455,80.89749)"
       id="g3457">
      <path
         d="m 0,0 c -9.948,6.523 -23.298,3.74 -29.815,-6.206 -6.526,-9.943 -3.753,-23.297 6.206,-29.822 9.946,-6.523 23.298,-3.746 29.818,6.203 C 12.734,-19.876 9.954,-6.524 0,0 z m 1.389,-28.727 c -5.141,-7.851 -15.48,-10.176 -23.084,-5.191 -7.607,4.987 -9.599,15.392 -4.449,23.242 5.148,7.851 15.484,10.178 23.085,5.191 7.602,-4.984 9.599,-15.392 4.448,-23.242"
         id="path3459"
         style="fill:#f4811f;fill-opacity:1;fill-rule:nonzero;stroke:none" />
    </g>
  </g>
</svg>
