<?xml version="1.0" encoding="UTF-8" standalone="no"?>
<svg width="17px" height="10px" viewBox="0 0 17 10" version="1.1" xmlns="http://www.w3.org/2000/svg" xmlns:xlink="http://www.w3.org/1999/xlink">
    <!-- Generator: Sketch 3.7.2 (28276) - http://www.bohemiancoding.com/sketch -->
    <title>Page 1</title>
    <desc>Created with Sketch.</desc>
    <defs>
        <polygon id="path-1" points="0 9.67238462 16.6426222 9.67238462 16.6426222 7.69230769e-05 0 7.69230769e-05"></polygon>
        <polygon id="path-3" points="0 9.67238462 16.6426222 9.67238462 16.6426222 7.69230774e-05 0 7.69230774e-05"></polygon>
    </defs>
    <g id="Page-1" stroke="none" stroke-width="1" fill="none" fill-rule="evenodd">
        <g id="Verk1" transform="translate(-1261.000000, -1034.000000)">
            <g id="Page-1" transform="translate(1261.000000, 1034.000000)">
                <mask id="mask-2" fill="white">
                    <use xlink:href="#path-1"></use>
                </mask>
                <g id="Clip-2"></g>
                <mask id="mask-4" fill="white">
                    <use xlink:href="#path-3"></use>
                </mask>
                <g id="Clip-2"></g>
                <path d="M8.05426,9.55973077 L0.110726667,1.47242308 C-0.0369844444,1.32203846 -0.0369844444,1.07857692 0.110726667,0.928576923 L0.911993333,0.112807692 C1.05932667,-0.0375769231 1.29846,-0.0375769231 1.44617111,0.112807692 L8.05426,6.8405 C8.20197111,6.9905 8.44110444,6.9905 8.58843778,6.8405 L15.1965267,0.112807692 C15.3442378,-0.0375769231 15.5833711,-0.0375769231 15.7310822,0.112807692 L16.5319711,0.928576923 C16.6796822,1.07857692 16.6796822,1.32203846 16.5319711,1.47242308 L8.58843778,9.55973077 C8.44110444,9.71011538 8.20197111,9.71011538 8.05426,9.55973077" id="Fill-1" fill="#212121" mask="url(#mask-4)"></path>
            </g>
        </g>
    </g>
</svg>