<?xml version="1.0" encoding="UTF-8" standalone="no"?>
<svg width="14px" height="8px" viewBox="0 0 14 8" version="1.1" xmlns="http://www.w3.org/2000/svg" xmlns:xlink="http://www.w3.org/1999/xlink">
    <!-- Generator: Sketch 3.7.2 (28276) - http://www.bohemiancoding.com/sketch -->
    <title>Page 1</title>
    <desc>Created with Sketch.</desc>
    <defs>
        <polygon id="path-1" points="0 7.73790769 13.7056889 7.73790769 13.7056889 6.15384615e-05 0 6.15384615e-05"></polygon>
    </defs>
    <g id="Page-1" stroke="none" stroke-width="1" fill="none" fill-rule="evenodd">
        <g id="Search-Result" transform="translate(-1274.000000, -1578.000000)">
            <g id="Page-1" transform="translate(1281.000000, 1582.000000) rotate(-180.000000) translate(-1281.000000, -1582.000000) translate(1274.000000, 1578.000000)">
                <mask id="mask-2" fill="white">
                    <use xlink:href="#path-1"></use>
                </mask>
                <g id="Clip-2"></g>
                <path d="M6.63292,7.64778462 L0.0911866667,1.17793846 C-0.0304577778,1.05763077 -0.0304577778,0.862861538 0.0911866667,0.742861538 L0.751053333,0.0902461538 C0.872386667,-0.0300615385 1.06932,-0.0300615385 1.19096444,0.0902461538 L6.63292,5.4724 C6.75456444,5.5924 6.95149778,5.5924 7.07283111,5.4724 L12.5147867,0.0902461538 C12.6364311,-0.0300615385 12.8333644,-0.0300615385 12.9550089,0.0902461538 L13.6145644,0.742861538 C13.7362089,0.862861538 13.7362089,1.05763077 13.6145644,1.17793846 L7.07283111,7.64778462 C6.95149778,7.76809231 6.75456444,7.76809231 6.63292,7.64778462" id="Fill-1" fill="#D63814" mask="url(#mask-2)"></path>
            </g>
        </g>
    </g>
</svg>