<svg xmlns="http://www.w3.org/2000/svg" viewBox="-18767 1647 226.541 32">
  <defs>
    <style>
      .cls-1 {
        fill: #fff;
      }
    </style>
  </defs>
  <g id="Group_5362" data-name="Group 5362" transform="translate(-18767.001 1647)">
    <path id="Path_4038" data-name="Path 4038" class="cls-1" d="M0,3.2H12.151a11.378,11.378,0,0,1,9.584,4.452,16.62,16.62,0,0,1,3.038,10.291,20.571,20.571,0,0,1-1.807,8.746C20.845,31.3,17.231,33.6,12.072,33.6H0ZM11.339,30.067a10.813,10.813,0,0,0,3.352-.445,7.406,7.406,0,0,0,3.849-3.116,13.429,13.429,0,0,0,1.728-4.714,17.794,17.794,0,0,0,.314-3.195c0-3.771-.733-6.678-2.2-8.773s-3.823-3.116-7.07-3.116H4.164V30.041h7.175Z" transform="translate(0 -2.362)"/>
    <path id="Path_4039" data-name="Path 4039" class="cls-1" d="M121.7,3.2h22.049V6.918H125.707v9.218h16.681v3.509H125.707V29.936h18.357V33.55H121.7Z" transform="translate(-89.831 -2.362)"/>
    <path id="Path_4040" data-name="Path 4040" class="cls-1" d="M235.7,3.2h4.164V33.6H235.7Z" transform="translate(-173.978 -2.362)"/>
    <path id="Path_4041" data-name="Path 4041" class="cls-1" d="M298.761,3.038a10.792,10.792,0,0,1,3.509,6.913h-4.007a8.39,8.39,0,0,0-2.671-4.661,8.322,8.322,0,0,0-5.63-1.728,8.9,8.9,0,0,0-7.123,3.169c-1.807,2.095-2.723,5.342-2.723,9.689a14.168,14.168,0,0,0,2.462,8.668c1.624,2.226,4.059,3.326,7.306,3.326a7.669,7.669,0,0,0,6.809-3.509,13.376,13.376,0,0,0,1.859-4.845h4.007a13.8,13.8,0,0,1-3.509,8.039,12.4,12.4,0,0,1-9.663,3.9,12.664,12.664,0,0,1-8.8-3.221q-4.674-4.242-4.687-13.093a16.907,16.907,0,0,1,3.509-11.025A12.886,12.886,0,0,1,289.91,0C293.707,0,296.666,1.021,298.761,3.038Z" transform="translate(-203.651)"/>
    <path id="Path_4042" data-name="Path 4042" class="cls-1" d="M402.4,3.2h4.164V15.77H422.2V3.2h4.164V33.6H422.2V19.357H406.59V33.576h-4.164V3.2Z" transform="translate(-297.025 -2.362)"/>
    <path id="Path_4043" data-name="Path 4043" class="cls-1" d="M522.5,3.2h5.892l8.746,25.689L545.806,3.2h5.866V33.6h-3.928V15.639c0-.628.026-1.65.052-3.09s.052-2.959.052-4.609l-8.668,25.637H535.1L526.323,7.94v.943c0,.733.026,1.885.052,3.4.052,1.519.052,2.645.052,3.352V33.576H522.5Z" transform="translate(-385.675 -2.362)"/>
    <path id="Path_4044" data-name="Path 4044" class="cls-1" d="M663.344,3.2h4.635L679,33.6h-4.5L671.33,24.49H659.416l-3.3,9.113H651.9Zm6.835,17.938L665.491,7.7,660.62,21.138Z" transform="translate(-481.19 -2.362)"/>
    <path id="Path_4045" data-name="Path 4045" class="cls-1" d="M773.7,3.2h4.844l15.162,24.563V3.2h3.928V33.6H793L777.628,9.066V33.6H773.7Z" transform="translate(-571.094 -2.362)"/>
  </g>
</svg>
