<svg xmlns="http://www.w3.org/2000/svg" viewBox="0 0 21.21 22.76"><title>film</title><g id="Layer_2" data-name="Layer 2"><g id="Layer_1-2" data-name="Layer 1"><path d="M13.58,8.16l0,0,0,0H10L20.78,5.54,19.43,0,12,1.8h0l0,0L5.1,3.48h0L0,4.72l1.21,5V22.76h20V8.16Zm5.63,2v1.7H17.3l-1.71-1.7Zm-16,0H5.63l1.71,1.7H3.21Zm7,1.7-1.71-1.7h4.29l1.7,1.7ZM18,2.42l.41,1.65-1.87.45L14.44,3.27ZM11.69,3.94l2.06,1.25-4.17,1L7.52,5ZM4.77,5.62,6.83,6.88l-4,1L2.42,6.2ZM3.21,20.76v-6.9h16v6.9Z"/><rect x="6.63" y="16.27" width="9.17" height="2"/></g></g></svg>