<svg xmlns="http://www.w3.org/2000/svg" viewBox="-17473 6935 54.738 53.999">
  <defs>
    <style>
      .cls-1 {
        fill: #fff;
      }
    </style>
  </defs>
  <path id="Subtraction_1" data-name="Subtraction 1" class="cls-1" d="M17930.736-2407H17902a12.914,12.914,0,0,1-9.193-3.809A12.917,12.917,0,0,1,17889-2420v-28a12.917,12.917,0,0,1,3.809-9.192A12.914,12.914,0,0,1,17902-2461h28.734a13.017,13.017,0,0,1,13,13v28A13.017,13.017,0,0,1,17930.736-2407Zm-4.75-34.027a7.407,7.407,0,0,0-7.4,7.4,7.4,7.4,0,0,0,7.4,7.395,7.4,7.4,0,0,0,7.395-7.395A7.4,7.4,0,0,0,17925.986-2441.029Zm-19.234,0a7.407,7.407,0,0,0-7.4,7.4,7.4,7.4,0,0,0,7.4,7.395,7.4,7.4,0,0,0,7.395-7.395A7.4,7.4,0,0,0,17906.752-2441.029Z" transform="translate(-35362 9396)"/>
</svg>
