<?xml version="1.0" encoding="UTF-8" standalone="no"?>
<svg width="14px" height="15px" viewBox="0 0 14 15" version="1.1" xmlns="http://www.w3.org/2000/svg" xmlns:xlink="http://www.w3.org/1999/xlink">
    <!-- Generator: Sketch 3.7.2 (28276) - http://www.bohemiancoding.com/sketch -->
    <title>Page 1</title>
    <desc>Created with Sketch.</desc>
    <defs></defs>
    <g id="Page-1" stroke="none" stroke-width="1" fill="none" fill-rule="evenodd">
        <g id="Search-Result-1-Copy" transform="translate(-697.000000, -1660.000000)" fill="#212121">
            <g id="Page-1" transform="translate(697.000000, 1660.000000)">
                <path d="M3.00336771,3.4656 L0.000121724429,3.76067692 L0.000121724429,10.3342154 L2.98450042,10.8056 L6.99927642,14.2163692 L6.99927642,0.0776 L3.00336771,3.4656 Z M3.63846492,9.35175385 L1.52167709,9.01729231 L1.52167709,5.15698462 L3.61959763,4.95083077 L5.47772105,3.37544615 L5.47772105,10.9142154 L3.63846492,9.35175385 Z" id="Fill-1"></path>
                <g id="Group-9" transform="translate(8.216399, 0.024492)">
                    <path d="M1.3976399,2.38175385 L0.153007608,3.27806154 C0.811841082,4.42883077 1.19101268,5.76329231 1.19101268,7.18606154 C1.19101268,8.57098462 0.831925613,9.87252308 0.205044801,11.0023692 L1.44967709,11.8986769 C2.25092815,10.5131385 2.71256805,8.9036 2.71256805,7.18606154 C2.71256805,5.43067692 2.23175655,3.78729231 1.3976399,2.38175385" id="Fill-2"></path>
                    <path d="M3.63956044,0.767261538 L2.39949281,1.66018462 C3.37541843,3.27064615 3.93900254,5.16295385 3.93900254,7.18603077 C3.93900254,9.17156923 3.39550296,11.0303385 2.45305156,12.6211077 L3.69585799,13.5161846 C4.81450549,11.6715692 5.4605579,9.50387692 5.4605579,7.18603077 C5.4605579,4.83064615 4.79198648,2.63126154 3.63956044,0.767261538" id="Fill-4"></path>
                </g>
            </g>
        </g>
    </g>
</svg>