<?xml version="1.0" encoding="UTF-8" standalone="no"?>
<svg width="11px" height="14px" viewBox="0 0 11 14" version="1.1" xmlns="http://www.w3.org/2000/svg" xmlns:xlink="http://www.w3.org/1999/xlink">
    <!-- Generator: Sketch 3.7.2 (28276) - http://www.bohemiancoding.com/sketch -->
    <title>Page 1</title>
    <desc>Created with Sketch.</desc>
    <defs>
        <polygon id="path-1" points="11 6.93357368 11 13.8671228 0 13.8671228 0 6.93357368 0 2.45614028e-05 11 2.45614028e-05 11 6.93357368"></polygon>
    </defs>
    <g id="Page-1" stroke="none" stroke-width="1" fill="none" fill-rule="evenodd">
        <g id="Artboard-25" transform="translate(-97.000000, -87.000000)">
            <g id="Page-1" transform="translate(97.000000, 87.000000)">
                <mask id="mask-2" fill="white">
                    <use xlink:href="#path-1"></use>
                </mask>
                <g id="Clip-2"></g>
                <path d="M1.25,3.35584912 L1.25,9.84816491 C1.25,10.0220596 1.2465,10.101393 1.636,10.2730772 C1.886,10.3806561 4.75,11.3795684 7,12.1397439 L7,5.50841053 C5.75,5.0582 2.25875,3.7439193 1.25,3.35584912 L1.25,3.35584912 Z M8.25,13.8671474 C8.25,13.8671474 1.5015,11.5593579 1.126,11.3935684 C0.60125,11.1622 0,10.7775684 0,9.84816491 L0,1.74830526 C0,1.62132281 0.006,1.49581404 0.0305,1.37055088 C0.193,0.537919298 0.92225,2.45614028e-05 1.88825,2.45614028e-05 L11,2.45614028e-05 L11,11.2982702 L9.75,11.2982702 L9.75,1.22809474 L1.88825,1.22809474 C1.66625,1.22809474 1.37675,1.28581404 1.281,1.51349825 C1.1735,1.76967368 1.324,2.06342807 1.576,2.16216491 C2.471,2.51241053 7.7955,4.48960351 7.84925,4.50949825 L8.25,4.65956842 L8.25,13.8671474 Z" id="Fill-1" fill="#212121" mask="url(#mask-2)"></path>
            </g>
        </g>
    </g>
</svg>