<?xml version="1.0" encoding="UTF-8" standalone="no"?>
<svg width="14px" height="14px" viewBox="0 0 14 14" version="1.1" xmlns="http://www.w3.org/2000/svg" xmlns:xlink="http://www.w3.org/1999/xlink">
    <!-- Generator: Sketch 3.7.2 (28276) - http://www.bohemiancoding.com/sketch -->
    <title>Group</title>
    <desc>Created with Sketch.</desc>
    <defs></defs>
    <g id="Page-1" stroke="none" stroke-width="1" fill="none" fill-rule="evenodd">
        <g id="Artboard-25" transform="translate(-95.000000, -262.000000)" fill="#212121">
            <g id="Group" transform="translate(95.000000, 262.000000)">
                <circle id="Oval-11" cx="7" cy="7" r="1.38461538"></circle>
                <circle id="Oval-11" cx="9.76923077" cy="9.76923077" r="1.38461538"></circle>
                <circle id="Oval-11" cx="4.23076923" cy="4.23076923" r="1.38461538"></circle>
                <path d="M1.6,2.00247329 C1.6,1.78322064 1.78409658,1.6 2.00247329,1.6 L11.9975267,1.6 C12.2167794,1.6 12.4,1.78409658 12.4,2.00247329 L12.4,11.9975267 C12.4,12.2167794 12.2159034,12.4 11.9975267,12.4 L2.00247329,12.4 C1.78322064,12.4 1.6,12.2159034 1.6,11.9975267 L1.6,2.00247329 L1.6,2.00247329 Z M0.4,2.00247329 L0.4,11.9975267 C0.4,12.8773673 1.11919436,13.6 2.00247329,13.6 L11.9975267,13.6 C12.8773673,13.6 13.6,12.8808056 13.6,11.9975267 L13.6,2.00247329 C13.6,1.1226327 12.8808056,0.4 11.9975267,0.4 L2.00247329,0.4 C1.1226327,0.4 0.4,1.11919436 0.4,2.00247329 L0.4,2.00247329 Z" id="Rectangle-745"></path>
            </g>
        </g>
    </g>
</svg>