<?xml version="1.0" encoding="UTF-8" standalone="no"?>
<svg width="12px" height="13px" viewBox="0 0 12 13" version="1.1" xmlns="http://www.w3.org/2000/svg" xmlns:xlink="http://www.w3.org/1999/xlink">
    <!-- Generator: Sketch 3.7.2 (28276) - http://www.bohemiancoding.com/sketch -->
    <title>Page 1 Copy</title>
    <desc>Created with Sketch.</desc>
    <defs>
        <polygon id="path-1" points="12 12.7765 0 12.7765 0 6.3882625 0 2.49999975e-05 12 2.49999975e-05 12 6.3882625"></polygon>
    </defs>
    <g id="Page-1" stroke="none" stroke-width="1" fill="none" fill-rule="evenodd">
        <g id="Artboard-25" transform="translate(-96.000000, -193.000000)">
            <g id="Page-1-Copy" transform="translate(96.000000, 193.000000)">
                <mask id="mask-2" fill="white">
                    <use xlink:href="#path-1"></use>
                </mask>
                <g id="Clip-2"></g>
                <path d="M10.7234043,3.551775 L4.85106383,4.393525 L4.85106383,2.289275 L10.7234043,1.446275 L10.7234043,3.551775 Z M3.57446809,1.209025 L3.57446809,9.864775 C3.57446809,10.905275 3.0906383,11.526525 2.2986383,11.526525 C1.49029787,11.526525 1.26382979,10.942525 1.26382979,10.597775 C1.26382979,9.769025 2.01114894,9.474275 2.42987234,9.377275 L2.55319149,9.353775 L2.55319149,8.080775 L2.16306383,8.155775 C0.827744681,8.464275 0,9.400025 0,10.597775 C0,11.654025 0.800680851,12.776525 2.29480851,12.776525 C3.81497872,12.776525 4.85106383,11.606275 4.85106383,9.864775 L4.85106383,5.656775 L10.7234043,4.815025 L10.7234043,8.629025 C10.7234043,9.669525 10.2451915,10.276025 9.45293617,10.276025 C8.64485106,10.276025 8.42374468,9.707025 8.42374468,9.362025 C8.42374468,8.533275 9.16748936,8.238525 9.58595745,8.141525 L9.70212766,8.119275 L9.70212766,6.845775 L9.3173617,6.920275 C7.98204255,7.228525 7.14893617,8.164275 7.14893617,9.362025 C7.14893617,10.418275 7.95702128,11.526025 9.45140426,11.526025 C10.9715745,11.526025 12,10.370525 12,8.629025 L12,8.281775 L12,5.781775 L12,5.24546887 L12,2.49999975e-05 L3.57446809,1.209025 Z" id="Fill-1" fill="#212121" mask="url(#mask-2)"></path>
            </g>
        </g>
    </g>
</svg>