<?xml version="1.0" encoding="UTF-8" standalone="no"?>
<svg width="13px" height="13px" viewBox="0 0 13 13" version="1.1" xmlns="http://www.w3.org/2000/svg" xmlns:xlink="http://www.w3.org/1999/xlink">
    <!-- Generator: Sketch 3.7.2 (28276) - http://www.bohemiancoding.com/sketch -->
    <title>Group</title>
    <desc>Created with Sketch.</desc>
    <defs></defs>
    <g id="Page-1" stroke="none" stroke-width="1" fill="none" fill-rule="evenodd">
        <g id="Search-Result" transform="translate(-184.000000, -142.000000)" fill="#B1B1B1">
            <g id="Group" transform="translate(190.838835, 148.838835) rotate(-45.000000) translate(-190.838835, -148.838835) translate(185.838835, 141.338835)">
                <path d="M5,9.77272727 C7.63590449,9.77272727 9.77272727,7.63590449 9.77272727,5 C9.77272727,2.36409551 7.63590449,0.227272727 5,0.227272727 C2.36409551,0.227272727 0.227272727,2.36409551 0.227272727,5 C0.227272727,7.63590449 2.36409551,9.77272727 5,9.77272727 L5,9.77272727 Z M5,7.5 C3.61928813,7.5 2.5,6.38071187 2.5,5 C2.5,3.61928813 3.61928813,2.5 5,2.5 C6.38071187,2.5 7.5,3.61928813 7.5,5 C7.5,6.38071187 6.38071187,7.5 5,7.5 L5,7.5 Z" id="Oval-1-Copy"></path>
                <rect id="Rectangle-110" x="3.63636364" y="8.63636364" width="2.72727273" height="6.36363636" rx="1"></rect>
            </g>
        </g>
    </g>
</svg>