<?xml version="1.0" encoding="UTF-8" standalone="no"?>
<svg width="14px" height="11px" viewBox="0 0 14 11" version="1.1" xmlns="http://www.w3.org/2000/svg" xmlns:xlink="http://www.w3.org/1999/xlink">
    <!-- Generator: Sketch 3.7.2 (28276) - http://www.bohemiancoding.com/sketch -->
    <title>Page 1</title>
    <desc>Created with Sketch.</desc>
    <defs>
        <polygon id="path-1" points="14 5.49995111 14 0 0 0 0 5.49995111 0 10.9999022 14 10.9999022 14 5.49995111"></polygon>
        <polygon id="path-3" points="0 11 14 11 14 0 0 0"></polygon>
    </defs>
    <g id="Page-1" stroke="none" stroke-width="1" fill="none" fill-rule="evenodd">
        <g id="Artboard-25" transform="translate(-95.000000, -158.000000)">
            <g id="Page-1" transform="translate(95.000000, 158.000000)">
                <g id="Group-3">
                    <mask id="mask-2" fill="white">
                        <use xlink:href="#path-1"></use>
                    </mask>
                    <g id="Clip-2"></g>
                    <path d="M12.7931034,8.09590222 L11.3448276,7.49505778 L11.3448276,5.70474667 L12.7931034,5.10414667 L12.7931034,8.09590222 Z M13.2522069,3.66656889 C13.147931,3.66656889 13.0438966,3.68783556 12.9432414,3.72939111 L11.3448276,4.39232444 L11.3448276,4.27768 C11.3448276,3.26519111 10.5345172,2.44434667 9.53448276,2.44434667 L8.90737931,2.44434667 L8.22910345,0.415213333 C8.14606897,0.167102222 7.91627586,-9.77777781e-05 7.65751724,-9.77777781e-05 L1.68965517,-9.77777781e-05 L1.68965517,1.22212444 L7.22472414,1.22212444 L8.04227586,3.66656889 L9.53448276,3.66656889 C9.86782759,3.66656889 10.137931,3.94010222 10.137931,4.27768 L10.137931,9.16656889 C10.137931,9.50414667 9.86782759,9.77768 9.53448276,9.77768 L1.81034483,9.77768 C1.477,9.77768 1.20689655,9.50414667 1.20689655,9.16656889 L1.20689655,4.27768 C1.20689655,3.94010222 1.477,3.66656889 1.81034483,3.66656889 L6.7677931,3.66656889 L6.35889655,2.44434667 L1.81034483,2.44434667 C0.810310345,2.44434667 0,3.26519111 0,4.27768 L0,9.16656889 C0,10.1793022 0.810310345,10.9999022 1.81034483,10.9999022 L9.53448276,10.9999022 C10.5345172,10.9999022 11.3448276,10.1793022 11.3448276,9.16656889 L11.3448276,8.80772444 L12.9434828,9.47065778 C13.0438966,9.51221333 13.147931,9.53323556 13.2522069,9.53323556 C13.6717241,9.53323556 14,9.19345778 14,8.75956889 L14,4.44023556 C14,4.00659111 13.6717241,3.66656889 13.2522069,3.66656889 L13.2522069,3.66656889 Z" id="Fill-1" fill="#212121" mask="url(#mask-2)"></path>
                </g>
                <mask id="mask-4" fill="white">
                    <use xlink:href="#path-3"></use>
                </mask>
                <g id="Clip-5"></g>
                <polygon id="Fill-4" fill="#212121" mask="url(#mask-4)" points="2.89655172 8.31111111 8.44827586 8.31111111 8.44827586 7.08888889 2.89655172 7.08888889"></polygon>
            </g>
        </g>
    </g>
</svg>