<svg xmlns="http://www.w3.org/2000/svg" viewBox="-17313 6935.003 54.008 53.997">
  <defs>
    <style>
      .cls-1 {
        fill: #fff;
      }
    </style>
  </defs>
  <g id="Group_5026" data-name="Group 5026" transform="translate(-17889 2339)">
    <path id="Path_3813" data-name="Path 3813" class="cls-1" d="M26.993,4.865c7.212,0,8.058.032,10.909.161a14.732,14.732,0,0,1,5.015.932,8.378,8.378,0,0,1,3.108,2.015,8.247,8.247,0,0,1,2.015,3.108,15.008,15.008,0,0,1,.932,5.015c.129,2.85.161,3.7.161,10.909s-.032,8.058-.161,10.909a14.732,14.732,0,0,1-.932,5.015,8.378,8.378,0,0,1-2.015,3.108,8.247,8.247,0,0,1-3.108,2.015,15.008,15.008,0,0,1-5.015.932c-2.85.129-3.7.161-10.909.161s-8.058-.032-10.909-.161a14.732,14.732,0,0,1-5.015-.932,8.378,8.378,0,0,1-3.108-2.015,8.247,8.247,0,0,1-2.015-3.108,15.008,15.008,0,0,1-.932-5.015c-.129-2.85-.161-3.7-.161-10.909s.032-8.058.161-10.909a14.732,14.732,0,0,1,.932-5.015A8.378,8.378,0,0,1,7.962,7.973a8.247,8.247,0,0,1,3.108-2.015,15.008,15.008,0,0,1,5.015-.932c2.85-.139,3.708-.161,10.909-.161m0-4.865c-7.33,0-8.251.032-11.134.161A19.786,19.786,0,0,0,9.312,1.414,13.157,13.157,0,0,0,4.533,4.533,13.39,13.39,0,0,0,1.414,9.312,19.8,19.8,0,0,0,.161,15.87C.032,18.742,0,19.664,0,26.993s.032,8.251.161,11.134a19.916,19.916,0,0,0,1.254,6.558,13.157,13.157,0,0,0,3.118,4.779,13.39,13.39,0,0,0,4.779,3.118,19.8,19.8,0,0,0,6.558,1.254C18.753,53.965,19.664,54,27,54s8.251-.032,11.134-.161A19.916,19.916,0,0,0,44.7,52.583a13.158,13.158,0,0,0,4.779-3.118,13.39,13.39,0,0,0,3.118-4.779,19.8,19.8,0,0,0,1.254-6.558c.129-2.883.161-3.793.161-11.134s-.032-8.251-.161-11.134A19.916,19.916,0,0,0,52.593,9.3a13.158,13.158,0,0,0-3.118-4.779A13.39,13.39,0,0,0,44.7,1.4,19.8,19.8,0,0,0,38.138.15C35.244.032,34.323,0,26.993,0Z" transform="translate(576 4596.003)"/>
    <path id="Path_3814" data-name="Path 3814" class="cls-1" d="M136.366,122.6a13.866,13.866,0,1,0,13.866,13.866A13.868,13.868,0,0,0,136.366,122.6Zm0,22.857a9,9,0,1,1,9-9A9,9,0,0,1,136.366,145.457Z" transform="translate(466.627 4486.54)"/>
    <ellipse id="Ellipse_173" data-name="Ellipse 173" class="cls-1" cx="3.236" cy="3.236" rx="3.236" ry="3.236" transform="translate(614.17 4605.347)"/>
  </g>
</svg>
