<svg xmlns="http://www.w3.org/2000/svg" viewBox="0 0 13.45 16.42"><title>location16</title><g id="Layer_2" data-name="Layer 2"><g id="Layer_1-2" data-name="Layer 1"><path d="M6.72,16.42,2,11.6A6.86,6.86,0,0,1,2,2a6.66,6.66,0,0,1,9.52,0,6.85,6.85,0,0,1,0,9.6ZM6.72,2A4.65,4.65,0,0,0,3.39,3.4a4.84,4.84,0,0,0,0,6.8l3.33,3.38,3.34-3.38a4.86,4.86,0,0,0,0-6.8A4.68,4.68,0,0,0,6.72,2Z"/><path d="M6.72,9.84A3.11,3.11,0,1,1,9.84,6.73,3.12,3.12,0,0,1,6.72,9.84Zm0-4.22A1.11,1.11,0,1,0,7.84,6.73,1.11,1.11,0,0,0,6.72,5.62Z"/></g></g></svg>