<?xml version="1.0" encoding="utf-8"?>
<!-- Generator: Adobe Illustrator 22.0.1, SVG Export Plug-In . SVG Version: 6.00 Build 0)  -->
<svg version="1.1" id="Layer_1" xmlns="http://www.w3.org/2000/svg" xmlns:xlink="http://www.w3.org/1999/xlink" x="0px" y="0px"
	 viewBox="0 0 1339.3 202.2">
<g fill="#FFF">
	<path class="st0" d="M366,12.2h-7.1c-5.1,0-9.1,3.9-9.1,9.1v160.1c0,4.9,4.2,8.8,9.3,8.8h6.9c5.1,0,9.1-3.9,9.1-8.8V21.2
		C375.1,16.1,371.2,12.2,366,12.2z"/>
	<path class="st0" d="M493.6,34.2c21.8,0.2,34.8,14.7,40.9,34.3c1.7,5.1,6.9,7.6,11.7,5.9l7.3-2.2c4.7-1.5,6.9-5.9,5.6-10.5
		c-7.6-30.8-33-51.4-65.6-51.4c-46.2,0-76,37.1-76.1,90.8c0,0,0,0.1,0,0.1c0,0,0,0.1,0,0.1c0.1,53.7,29.9,90.8,76.1,90.8
		c32.5,0,58-20.6,65.6-51.4c1.2-4.6-1-9.1-5.6-10.5l-7.3-2.2c-4.9-1.7-10,0.7-11.7,5.9c-6.1,19.6-19.1,34-40.9,34.3
		c-31.1,0.2-50.7-26.4-50.7-66.8V101C442.9,60.6,462.5,33.9,493.6,34.2z"/>
	<path class="st0" d="M725,12.2h-7.3c-4.9,0-9.1,4.2-9.1,9.3v67.8h-81V21.5c0-5.1-4.2-9.3-9.3-9.3h-7.1c-5.1,0-9.3,4.2-9.3,9.3V181
		c0,4.9,4.2,9.1,9.3,9.1h7.1c5.1,0,9.3-4.2,9.3-9.1v-67.3h81V181c0,4.9,4.2,9.1,9.1,9.1h7.3c5.1,0,9.3-4.2,9.3-9.1V21.5
		C734.3,16.3,730.2,12.2,725,12.2z"/>
	<path class="st0" d="M948.9,12.2h-12.2c-4.7,0-7.3,2.7-9.1,5.9L874,113.7L820.9,18c-1.7-3.7-4.9-5.9-9.1-5.9h-12.5
		c-4.9,0-8.8,4.2-8.8,9.3V181c0,4.9,3.9,9.1,8.8,9.1h6.9c5.1,0,9.1-4.2,9.1-9.1l-0.2-126l44.8,77.6c1.5,2.9,4.2,5.6,8.3,5.6h12
		c3.9,0,7.1-2.9,8.3-5.6l44.8-77.6L933,181c0,4.9,3.9,9.1,9.1,9.1h6.9c4.9,0,8.8-4.2,8.8-9.1V21.5C957.7,16.3,953.8,12.2,948.9,12.2
		z"/>
	<path class="st0" d="M1307.6,12.2h-6.9c-5.1,0-9.1,4.2-9.1,9.3v120.2l-80.9-124.1c-1.7-2.9-5.1-5.4-9.5-5.4h-10.3
		c-5.1,0-9.3,4.2-9.3,9.3V181c0,4.9,4.2,9.1,9.3,9.1h6.9c5.1,0,9.1-4.2,9.1-9.1V56.9l82.4,127c1.7,2.9,4.9,6.1,9.3,6.1h9.1
		c5.1,0,9.3-4.2,9.3-9.1V21.5C1316.9,16.3,1312.7,12.2,1307.6,12.2z"/>
	<path class="st0" d="M1083.2,18.5c-1.5-3.7-4.6-6.4-8.3-6.4h-9.8c-3.7,0-6.9,2.7-8.3,6.4l-62.7,162c-2,4.9,1.5,9.5,7.6,9.5h9.5
		c3.7,0,7.3-2.7,8.6-5.9l11.7-29.8h76.8l11.6,29.8c1.5,3.9,4.7,5.9,8.8,5.9h10c5.6,0,8.8-4.7,7.1-9.5L1083.2,18.5z M1069.7,50.8
		l29.6,79.5h-58.8L1069.7,50.8z"/>
	<path class="st0" d="M74.5,12.2H31.2c-4.9,0-8.8,4.2-8.8,9.3V181c0,4.9,3.9,9.1,8.8,9.1H75c48.9,0,85.9-36,85.9-88.6
		C160.9,47.4,125.9,12.2,74.5,12.2z M75.8,165.9H47.6V36.4h27.9c37.4,0,60.2,26.4,60.2,65.1C135.7,138.9,112.2,165.9,75.8,165.9z"/>
	<path class="st0" d="M202.8,88.7c-4.9,0-8.8,4.2-8.8,9.3v6.5c0,5.1,3.9,9.1,8.8,9.1h69.7c5.1,0,9.1-3.9,9.1-9.1v-6.7
		c0-5.1-3.9-9.1-9.1-9.1H202.8z"/>
	<g>
		<path class="st0" d="M192.8,36c-4.8,1.1-7.7,6-6.5,11l1.4,6.3c1.1,5,5.8,8,10.6,6.9l110-25.7c5-1.1,8-5.8,6.8-10.8l-1.5-6.6
			c-1.1-5-5.8-8-10.8-6.8L192.8,36z"/>
		<path class="st0" d="M308.6,167.8c4.8,1.1,7.7,6,6.5,11l-1.4,6.3c-1.1,5-5.8,8-10.6,6.9l-110-25.7c-5-1.1-8-5.8-6.8-10.8l1.5-6.6
			c1.1-5,5.8-8,10.8-6.8L308.6,167.8z"/>
	</g>
</g>
</svg>
