<svg xmlns="http://www.w3.org/2000/svg" viewBox="0 0 24.42 23.3"><title>meraapent</title><g id="Layer_2" data-name="Layer 2"><g id="Layer_1-2" data-name="Layer 1"><path d="M18.43,5l2.23-2.23L20,2.05a7,7,0,0,0-9.9,0,5.43,5.43,0,0,0-.59.68L0,12.19,6.38,21.3H.3v2h15v-2H8.82L2.6,12.42,8,7A7,7,0,0,0,10.05,12l.71.71L13,10.43A3.86,3.86,0,0,0,18.43,5ZM11,4l1-1a4.95,4.95,0,0,1,5.79-.22L17,3.55,11.55,9h0l-.72.72A5,5,0,0,1,11,4Zm5.81,4.79A1.92,1.92,0,0,1,14.4,9L17,6.4A1.88,1.88,0,0,1,16.81,8.81Z"/><rect x="19.04" y="10.54" width="2" height="3" transform="translate(-2.64 17.7) rotate(-45.01)"/><rect x="21.19" y="6.82" width="2" height="4.25" transform="translate(10.78 29.96) rotate(-83.44)"/><rect x="15.94" y="12.07" width="2" height="4.25" transform="translate(-1.51 2.02) rotate(-6.54)"/></g></g></svg>