<svg xmlns="http://www.w3.org/2000/svg" viewBox="0 0 24 24.11"><defs><style>.cls-1{fill:#121212;}</style></defs><title>music24</title><g id="Layer_2" data-name="Layer 2"><g id="Layer_1-2" data-name="Layer 1"><path class="cls-1" d="M24,0,7.33,1.67v14a4.6,4.6,0,0,0-2.66-.85,4.67,4.67,0,1,0,4.66,4.67V7.88L22,6.61v6.31a4.5,4.5,0,1,0,2,3.72c0-.05,0-.09,0-.13H24ZM4.67,22.11a2.67,2.67,0,1,1,2.66-2.67A2.68,2.68,0,0,1,4.67,22.11ZM9.33,5.87V3.48L22,2.21V4.6ZM19.47,19.14a2.5,2.5,0,1,1,2.5-2.5A2.5,2.5,0,0,1,19.47,19.14Z"/></g></g></svg>