<svg xmlns="http://www.w3.org/2000/svg" viewBox="0 0 26 17"><title>spill</title><g id="Layer_2" data-name="Layer 2"><g id="Layer_1-2" data-name="Layer 1"><path d="M19,7a3,3,0,1,0,3,3A3,3,0,0,0,19,7Zm0,4a1,1,0,1,1,1-1A1,1,0,0,1,19,11Z"/><rect x="4.38" y="9" width="4" height="2" transform="translate(-5.2 7.44) rotate(-45)"/><rect x="8.86" y="9" width="4" height="2" transform="translate(-3.89 10.61) rotate(-45)"/><path d="M19,3H14V0H12V3H7A7,7,0,0,0,7,17H19A7,7,0,0,0,19,3Zm0,12H7A5,5,0,0,1,7,5H19a5,5,0,0,1,0,10Z"/></g></g></svg>