<svg xmlns="http://www.w3.org/2000/svg" viewBox="-17159 6935 66.441 53.997">
  <defs>
    <style>
      .cls-1 {
        fill: #fff;
      }
    </style>
  </defs>
  <path id="Path_3812" data-name="Path 3812" class="cls-1" d="M-151.307-34.124q.041.877.039,1.762c0,18.012-13.711,38.784-38.785,38.784A38.588,38.588,0,0,1-210.947.3,27.76,27.76,0,0,0-207.7.489a27.352,27.352,0,0,0,16.93-5.835A13.646,13.646,0,0,1-203.5-14.814a13.6,13.6,0,0,0,2.562.246,13.679,13.679,0,0,0,3.593-.48A13.637,13.637,0,0,1-208.28-28.411c0-.06,0-.117,0-.174A13.533,13.533,0,0,0-202.1-26.88a13.621,13.621,0,0,1-6.066-11.347,13.582,13.582,0,0,1,1.846-6.851,38.7,38.7,0,0,0,28.1,14.242,13.606,13.606,0,0,1-.354-3.108,13.634,13.634,0,0,1,13.633-13.63A13.617,13.617,0,0,1-155-43.268a27.314,27.314,0,0,0,8.655-3.308,13.678,13.678,0,0,1-5.994,7.54,27.206,27.206,0,0,0,7.828-2.146,27.735,27.735,0,0,1-6.8,7.058" transform="translate(-16948.053 6982.574)"/>
</svg>
